M48
;Layer_Color=9474304
;FILE_FORMAT=4:3
METRIC,LZ
;TYPE=NON_PLATED
T03F00S00C0.600
T04F00S00C2.000
%
T03
X0016825Y0007175
X0017825
X0018825
X0019825
X0020825
X0021825
X0007Y0047175
Y0048175
Y0049175
Y0050175
Y0051175
Y0052175
X00324
Y0051175
Y0050175
Y0049175
Y0048175
Y0047175
T04
X00025Y00025
X00375
X00025Y00695
X00375Y0062
M30
