G04*
G04 #@! TF.GenerationSoftware,Altium Limited,Altium Designer,26.6.0 (10)*
G04*
G04 Layer_Physical_Order=1*
G04 Layer_Color=255*
G04 Board_Origin=11311025|13478347*
%FSLAX43Y43*%
%MOMM*%
G71*
G04*
G04 #@! TF.SameCoordinates,DD9B497A-F5E9-495D-854C-5C37AF66DC5B*
G04*
G04*
G04 #@! TF.FilePolarity,Positive*
G04*
G01*
G75*
%ADD10C,0.250*%
%ADD13C,0.150*%
%ADD15C,0.254*%
%ADD16R,0.800X0.800*%
%ADD17R,0.800X0.800*%
%ADD18R,0.760X1.750*%
G04:AMPARAMS|DCode=19|XSize=1.655mm|YSize=0.381mm|CornerRadius=0.19mm|HoleSize=0mm|Usage=FLASHONLY|Rotation=270.000|XOffset=0mm|YOffset=0mm|HoleType=Round|Shape=RoundedRectangle|*
%AMROUNDEDRECTD19*
21,1,1.655,0.000,0,0,270.0*
21,1,1.275,0.381,0,0,270.0*
1,1,0.381,0.000,-0.637*
1,1,0.381,0.000,0.637*
1,1,0.381,0.000,0.637*
1,1,0.381,0.000,-0.637*
%
%ADD19ROUNDEDRECTD19*%
%ADD20O,0.300X1.700*%
%ADD21R,0.700X2.900*%
G04:AMPARAMS|DCode=22|XSize=0.45mm|YSize=1.4mm|CornerRadius=0.05mm|HoleSize=0mm|Usage=FLASHONLY|Rotation=90.000|XOffset=0mm|YOffset=0mm|HoleType=Round|Shape=RoundedRectangle|*
%AMROUNDEDRECTD22*
21,1,0.450,1.301,0,0,90.0*
21,1,0.351,1.400,0,0,90.0*
1,1,0.099,0.651,0.176*
1,1,0.099,0.651,-0.176*
1,1,0.099,-0.651,-0.176*
1,1,0.099,-0.651,0.176*
%
%ADD22ROUNDEDRECTD22*%
%ADD23R,1.100X1.900*%
%ADD24R,0.381X1.655*%
%ADD35C,1.000*%
%ADD36C,0.400*%
%ADD37C,1.550*%
%ADD38C,1.500*%
%ADD39R,1.550X1.550*%
%ADD40C,0.600*%
G36*
X30644Y64037D02*
X31043Y63872D01*
X31402Y63632D01*
X31707Y63327D01*
X31947Y62968D01*
X32112Y62569D01*
X32196Y62145D01*
Y61929D01*
Y52580D01*
X32076Y52499D01*
X31976Y52351D01*
X31941Y52175D01*
X31976Y51999D01*
X32076Y51851D01*
X32196Y51770D01*
Y51580D01*
X32076Y51499D01*
X31976Y51351D01*
X31941Y51175D01*
X31976Y50999D01*
X32076Y50851D01*
X32196Y50770D01*
Y50580D01*
X32076Y50499D01*
X31976Y50351D01*
X31941Y50175D01*
X31976Y49999D01*
X32076Y49851D01*
X32196Y49770D01*
Y49580D01*
X32076Y49499D01*
X31976Y49351D01*
X31941Y49175D01*
X31976Y48999D01*
X32076Y48851D01*
X32196Y48770D01*
Y48580D01*
X32076Y48499D01*
X31976Y48351D01*
X31941Y48175D01*
X31976Y47999D01*
X32076Y47851D01*
X32196Y47770D01*
Y47580D01*
X32076Y47499D01*
X31976Y47351D01*
X31941Y47175D01*
X31976Y46999D01*
X32076Y46851D01*
X32196Y46770D01*
Y29736D01*
X32066Y29687D01*
X32046Y29687D01*
X30216D01*
Y28963D01*
X28390D01*
X28327Y29058D01*
X28178Y29158D01*
X28002Y29193D01*
X27827Y29158D01*
X27678Y29058D01*
X27578Y28909D01*
X27543Y28734D01*
X27578Y28558D01*
X27678Y28409D01*
X27827Y28310D01*
X28002Y28275D01*
X28178Y28310D01*
X28327Y28409D01*
X28390Y28504D01*
X30216D01*
Y27837D01*
X32046D01*
X32066Y27837D01*
X32196Y27789D01*
Y26446D01*
X32046Y26437D01*
X32043Y26464D01*
X31949Y26689D01*
X31801Y26882D01*
X31608Y27030D01*
X31383Y27124D01*
X31141Y27155D01*
X30900Y27124D01*
X30675Y27030D01*
X30482Y26882D01*
X30333Y26689D01*
X30240Y26464D01*
X30208Y26222D01*
X30240Y25981D01*
X30333Y25756D01*
X30482Y25563D01*
X30675Y25414D01*
X30900Y25321D01*
X31141Y25289D01*
X31383Y25321D01*
X31608Y25414D01*
X31801Y25563D01*
X31949Y25756D01*
X32043Y25981D01*
X32046Y26008D01*
X32196Y25998D01*
Y23906D01*
X32046Y23897D01*
X32043Y23924D01*
X31949Y24149D01*
X31801Y24342D01*
X31608Y24490D01*
X31383Y24584D01*
X31141Y24615D01*
X30900Y24584D01*
X30675Y24490D01*
X30482Y24342D01*
X30333Y24149D01*
X30240Y23924D01*
X30208Y23682D01*
X30240Y23441D01*
X30333Y23216D01*
X30482Y23023D01*
X30675Y22874D01*
X30900Y22781D01*
X31141Y22749D01*
X31383Y22781D01*
X31608Y22874D01*
X31801Y23023D01*
X31949Y23216D01*
X32043Y23441D01*
X32046Y23468D01*
X32196Y23458D01*
Y21366D01*
X32046Y21357D01*
X32043Y21384D01*
X31949Y21609D01*
X31801Y21802D01*
X31608Y21950D01*
X31383Y22044D01*
X31141Y22075D01*
X30900Y22044D01*
X30675Y21950D01*
X30482Y21802D01*
X30333Y21609D01*
X30240Y21384D01*
X30208Y21142D01*
X30240Y20901D01*
X30333Y20676D01*
X30482Y20483D01*
X30675Y20334D01*
X30900Y20241D01*
X31141Y20209D01*
X31383Y20241D01*
X31608Y20334D01*
X31801Y20483D01*
X31949Y20676D01*
X32043Y20901D01*
X32046Y20928D01*
X32196Y20918D01*
Y18826D01*
X32046Y18817D01*
X32043Y18844D01*
X31949Y19069D01*
X31801Y19262D01*
X31608Y19410D01*
X31383Y19504D01*
X31141Y19535D01*
X30900Y19504D01*
X30675Y19410D01*
X30482Y19262D01*
X30333Y19069D01*
X30240Y18844D01*
X30208Y18602D01*
X30240Y18361D01*
X30333Y18136D01*
X30482Y17943D01*
X30675Y17794D01*
X30900Y17701D01*
X31141Y17669D01*
X31383Y17701D01*
X31608Y17794D01*
X31801Y17943D01*
X31949Y18136D01*
X32043Y18361D01*
X32046Y18388D01*
X32196Y18378D01*
Y16286D01*
X32046Y16277D01*
X32043Y16304D01*
X31949Y16529D01*
X31801Y16722D01*
X31608Y16870D01*
X31383Y16964D01*
X31141Y16995D01*
X30900Y16964D01*
X30675Y16870D01*
X30482Y16722D01*
X30333Y16529D01*
X30240Y16304D01*
X30208Y16062D01*
X30240Y15821D01*
X30333Y15596D01*
X30482Y15403D01*
X30675Y15254D01*
X30900Y15161D01*
X31141Y15129D01*
X31383Y15161D01*
X31608Y15254D01*
X31801Y15403D01*
X31949Y15596D01*
X32043Y15821D01*
X32046Y15848D01*
X32196Y15838D01*
Y13746D01*
X32046Y13737D01*
X32043Y13764D01*
X31949Y13989D01*
X31801Y14182D01*
X31608Y14330D01*
X31383Y14424D01*
X31141Y14455D01*
X30900Y14424D01*
X30675Y14330D01*
X30482Y14182D01*
X30333Y13989D01*
X30240Y13764D01*
X30208Y13522D01*
X30240Y13281D01*
X30333Y13056D01*
X30482Y12863D01*
X30675Y12714D01*
X30900Y12621D01*
X31141Y12589D01*
X31383Y12621D01*
X31608Y12714D01*
X31801Y12863D01*
X31949Y13056D01*
X32043Y13281D01*
X32046Y13308D01*
X32196Y13298D01*
Y11376D01*
X32046Y11346D01*
X31993Y11474D01*
X31837Y11678D01*
X31633Y11834D01*
X31396Y11932D01*
X31291Y11946D01*
Y10982D01*
Y10019D01*
X31396Y10032D01*
X31633Y10131D01*
X31837Y10287D01*
X31993Y10491D01*
X32046Y10619D01*
X32196Y10589D01*
Y9809D01*
X29766Y7379D01*
X22230D01*
X22149Y7499D01*
X22001Y7599D01*
X21825Y7634D01*
X21649Y7599D01*
X21501Y7499D01*
X21420Y7379D01*
X21230D01*
X21149Y7499D01*
X21001Y7599D01*
X20825Y7634D01*
X20649Y7599D01*
X20501Y7499D01*
X20420Y7379D01*
X20230D01*
X20149Y7499D01*
X20001Y7599D01*
X19825Y7634D01*
X19649Y7599D01*
X19501Y7499D01*
X19420Y7379D01*
X19230D01*
X19149Y7499D01*
X19001Y7599D01*
X18825Y7634D01*
X18649Y7599D01*
X18501Y7499D01*
X18420Y7379D01*
X18230D01*
X18149Y7499D01*
X18001Y7599D01*
X17825Y7634D01*
X17649Y7599D01*
X17501Y7499D01*
X17420Y7379D01*
X17230D01*
X17149Y7499D01*
X17001Y7599D01*
X16825Y7634D01*
X16649Y7599D01*
X16501Y7499D01*
X16420Y7379D01*
X7204D01*
Y10665D01*
X7354Y10695D01*
X7431Y10508D01*
X7587Y10305D01*
X7791Y10149D01*
X8028Y10050D01*
X8133Y10037D01*
Y11000D01*
Y11964D01*
X8028Y11950D01*
X7791Y11852D01*
X7587Y11696D01*
X7431Y11492D01*
X7354Y11306D01*
X7204Y11335D01*
Y13499D01*
X7354Y13509D01*
X7364Y13429D01*
X7382Y13299D01*
X7475Y13074D01*
X7623Y12880D01*
X7816Y12732D01*
X8041Y12639D01*
X8283Y12607D01*
X8524Y12639D01*
X8749Y12732D01*
X8942Y12880D01*
X9091Y13074D01*
X9143Y13201D01*
X12350D01*
X12424Y13151D01*
X12600Y13116D01*
X12776Y13151D01*
X12924Y13251D01*
X13024Y13399D01*
X13059Y13575D01*
X13024Y13751D01*
X12924Y13899D01*
X12776Y13999D01*
X12600Y14034D01*
X12424Y13999D01*
X12298Y13914D01*
X9129D01*
X9091Y14007D01*
X8942Y14200D01*
X8749Y14348D01*
X8524Y14441D01*
X8283Y14473D01*
X8041Y14441D01*
X7816Y14348D01*
X7623Y14200D01*
X7475Y14007D01*
X7382Y13782D01*
X7364Y13651D01*
X7354Y13572D01*
X7204Y13582D01*
Y16039D01*
X7354Y16049D01*
X7364Y15969D01*
X7382Y15839D01*
X7475Y15614D01*
X7623Y15420D01*
X7816Y15272D01*
X8041Y15179D01*
X8283Y15147D01*
X8524Y15179D01*
X8749Y15272D01*
X8942Y15420D01*
X9091Y15614D01*
X9184Y15839D01*
X9216Y16080D01*
X9184Y16322D01*
X9091Y16547D01*
X8942Y16740D01*
X8749Y16888D01*
X8524Y16981D01*
X8283Y17013D01*
X8041Y16981D01*
X7816Y16888D01*
X7623Y16740D01*
X7475Y16547D01*
X7382Y16322D01*
X7364Y16191D01*
X7354Y16112D01*
X7204Y16122D01*
Y18579D01*
X7354Y18589D01*
X7364Y18509D01*
X7382Y18379D01*
X7475Y18154D01*
X7623Y17960D01*
X7816Y17812D01*
X8041Y17719D01*
X8283Y17687D01*
X8524Y17719D01*
X8749Y17812D01*
X8942Y17960D01*
X9091Y18154D01*
X9184Y18379D01*
X9216Y18620D01*
X9184Y18862D01*
X9091Y19087D01*
X8942Y19280D01*
X8749Y19428D01*
X8524Y19521D01*
X8283Y19553D01*
X8041Y19521D01*
X7816Y19428D01*
X7623Y19280D01*
X7475Y19087D01*
X7382Y18862D01*
X7364Y18731D01*
X7354Y18652D01*
X7204Y18662D01*
Y21119D01*
X7354Y21129D01*
X7364Y21049D01*
X7382Y20919D01*
X7475Y20694D01*
X7623Y20500D01*
X7816Y20352D01*
X8041Y20259D01*
X8283Y20227D01*
X8524Y20259D01*
X8749Y20352D01*
X8942Y20500D01*
X9091Y20694D01*
X9184Y20919D01*
X9216Y21160D01*
X9184Y21402D01*
X9091Y21627D01*
X8942Y21820D01*
X8749Y21968D01*
X8524Y22061D01*
X8283Y22093D01*
X8041Y22061D01*
X7816Y21968D01*
X7623Y21820D01*
X7475Y21627D01*
X7382Y21402D01*
X7364Y21271D01*
X7354Y21192D01*
X7204Y21202D01*
Y23659D01*
X7354Y23669D01*
X7364Y23589D01*
X7382Y23459D01*
X7475Y23234D01*
X7623Y23040D01*
X7816Y22892D01*
X8041Y22799D01*
X8283Y22767D01*
X8524Y22799D01*
X8749Y22892D01*
X8942Y23040D01*
X9091Y23234D01*
X9184Y23459D01*
X9216Y23700D01*
X9184Y23942D01*
X9091Y24167D01*
X8942Y24360D01*
X8749Y24508D01*
X8524Y24601D01*
X8283Y24633D01*
X8041Y24601D01*
X7816Y24508D01*
X7623Y24360D01*
X7475Y24167D01*
X7382Y23942D01*
X7364Y23811D01*
X7354Y23732D01*
X7204Y23742D01*
Y26199D01*
X7354Y26209D01*
X7364Y26129D01*
X7382Y25999D01*
X7475Y25774D01*
X7623Y25580D01*
X7816Y25432D01*
X8041Y25339D01*
X8283Y25307D01*
X8524Y25339D01*
X8749Y25432D01*
X8942Y25580D01*
X9091Y25774D01*
X9184Y25999D01*
X9216Y26240D01*
X9184Y26482D01*
X9091Y26707D01*
X8942Y26900D01*
X8749Y27048D01*
X8524Y27141D01*
X8283Y27173D01*
X8041Y27141D01*
X7816Y27048D01*
X7623Y26900D01*
X7475Y26707D01*
X7382Y26482D01*
X7364Y26351D01*
X7354Y26272D01*
X7204Y26282D01*
Y46770D01*
X7324Y46851D01*
X7424Y46999D01*
X7459Y47175D01*
X7424Y47351D01*
X7324Y47499D01*
X7204Y47580D01*
Y47770D01*
X7324Y47851D01*
X7424Y47999D01*
X7459Y48175D01*
X7424Y48351D01*
X7324Y48499D01*
X7204Y48580D01*
Y48770D01*
X7324Y48851D01*
X7424Y48999D01*
X7459Y49175D01*
X7424Y49351D01*
X7324Y49499D01*
X7204Y49580D01*
Y49770D01*
X7324Y49851D01*
X7424Y49999D01*
X7459Y50175D01*
X7424Y50351D01*
X7324Y50499D01*
X7204Y50580D01*
Y50770D01*
X7324Y50851D01*
X7424Y50999D01*
X7459Y51175D01*
X7424Y51351D01*
X7324Y51499D01*
X7204Y51580D01*
Y51770D01*
X7324Y51851D01*
X7424Y51999D01*
X7459Y52175D01*
X7424Y52351D01*
X7324Y52499D01*
X7204Y52580D01*
Y61940D01*
Y62155D01*
X7288Y62576D01*
X7452Y62973D01*
X7691Y63330D01*
X7995Y63634D01*
X8352Y63873D01*
X8749Y64037D01*
X9170Y64121D01*
X30220D01*
X30644Y64037D01*
D02*
G37*
%LPC*%
G36*
X29470Y62655D02*
X28870D01*
Y61655D01*
X29470D01*
Y62655D01*
D02*
G37*
G36*
X28570D02*
X27970D01*
Y61655D01*
X28570D01*
Y62655D01*
D02*
G37*
G36*
X12070D02*
X11470D01*
Y61655D01*
X12070D01*
Y62655D01*
D02*
G37*
G36*
X11170D02*
X10570D01*
Y61655D01*
X11170D01*
Y62655D01*
D02*
G37*
G36*
X29470Y61355D02*
X28870D01*
Y60355D01*
X29470D01*
Y61355D01*
D02*
G37*
G36*
X28570D02*
X27970D01*
Y60355D01*
X28570D01*
Y61355D01*
D02*
G37*
G36*
X12070D02*
X11470D01*
Y60355D01*
X12070D01*
Y61355D01*
D02*
G37*
G36*
X11170D02*
X10570D01*
Y60355D01*
X11170D01*
Y61355D01*
D02*
G37*
G36*
X13820Y59355D02*
X13420D01*
Y57855D01*
X13820D01*
Y59355D01*
D02*
G37*
G36*
X13120D02*
X12720D01*
Y57855D01*
X13120D01*
Y59355D01*
D02*
G37*
G36*
X13820Y57555D02*
X13420D01*
Y56055D01*
X13820D01*
Y57555D01*
D02*
G37*
G36*
X13120D02*
X12720D01*
Y56055D01*
X13120D01*
Y57555D01*
D02*
G37*
G36*
X27270Y59305D02*
X26270D01*
Y56105D01*
X26541D01*
Y55075D01*
X26250D01*
Y53975D01*
X27350D01*
Y55075D01*
X26999D01*
Y56105D01*
X27270D01*
Y59305D01*
D02*
G37*
G36*
X25770D02*
X24770D01*
Y56105D01*
X25071D01*
Y55075D01*
X24750D01*
Y53975D01*
X25850D01*
Y55075D01*
X25529D01*
Y56105D01*
X25770D01*
Y59305D01*
D02*
G37*
G36*
X24270D02*
X23270D01*
Y56105D01*
X23571D01*
Y55075D01*
X23250D01*
Y53975D01*
X24350D01*
Y55075D01*
X24029D01*
Y56105D01*
X24270D01*
Y59305D01*
D02*
G37*
G36*
X22770D02*
X21770D01*
Y56105D01*
X22071D01*
Y55075D01*
X21750D01*
Y53975D01*
X22850D01*
Y55075D01*
X22529D01*
Y56105D01*
X22770D01*
Y59305D01*
D02*
G37*
G36*
X21270D02*
X20270D01*
Y56105D01*
X20571D01*
Y55075D01*
X20250D01*
Y53975D01*
X21350D01*
Y55075D01*
X21029D01*
Y56105D01*
X21270D01*
Y59305D01*
D02*
G37*
G36*
X19770D02*
X18770D01*
Y56105D01*
X19071D01*
Y55075D01*
X18750D01*
Y53975D01*
X19850D01*
Y55075D01*
X19529D01*
Y56105D01*
X19770D01*
Y59305D01*
D02*
G37*
G36*
X18270D02*
X17270D01*
Y56105D01*
X17571D01*
Y55075D01*
X17250D01*
Y53975D01*
X18350D01*
Y55075D01*
X18029D01*
Y56105D01*
X18270D01*
Y59305D01*
D02*
G37*
G36*
X16770D02*
X15770D01*
Y56105D01*
X16071D01*
Y55075D01*
X15750D01*
Y53975D01*
X16850D01*
Y55075D01*
X16529D01*
Y56105D01*
X16770D01*
Y59305D01*
D02*
G37*
G36*
X14800Y60534D02*
X14624Y60499D01*
X14476Y60399D01*
X14376Y60251D01*
X14341Y60075D01*
X14376Y59899D01*
X14428Y59822D01*
Y59305D01*
X14270D01*
Y56105D01*
X14413D01*
Y49305D01*
X14440Y49168D01*
X14518Y49053D01*
X16086Y47484D01*
Y47250D01*
X15900D01*
Y46150D01*
X16086D01*
Y45757D01*
X16061Y45732D01*
X15475D01*
X15460Y45729D01*
X14800D01*
X14722Y45713D01*
X14712Y45707D01*
X13951D01*
X13814Y45680D01*
X13699Y45602D01*
X13464Y45368D01*
X13387Y45252D01*
X13360Y45116D01*
Y42700D01*
X13210Y42620D01*
X13145Y42663D01*
Y44559D01*
X13128Y44647D01*
X13078Y44721D01*
X12287Y45512D01*
X12213Y45562D01*
X12125Y45579D01*
X10393D01*
X10388Y45603D01*
X10344Y45669D01*
X10278Y45713D01*
X10200Y45729D01*
X8899D01*
X8822Y45713D01*
X8756Y45669D01*
X8712Y45603D01*
X8696Y45526D01*
Y45174D01*
X8712Y45097D01*
X8756Y45031D01*
Y45019D01*
X8712Y44953D01*
X8696Y44875D01*
Y44525D01*
X8712Y44447D01*
X8756Y44381D01*
Y44369D01*
X8712Y44303D01*
X8696Y44225D01*
Y43875D01*
X8712Y43797D01*
X8756Y43731D01*
Y43719D01*
X8712Y43653D01*
X8696Y43576D01*
Y43224D01*
X8712Y43147D01*
X8756Y43081D01*
Y43069D01*
X8712Y43003D01*
X8696Y42925D01*
Y42575D01*
X8712Y42497D01*
X8756Y42431D01*
Y42419D01*
X8712Y42353D01*
X8696Y42276D01*
Y41924D01*
X8712Y41847D01*
X8756Y41781D01*
Y41769D01*
X8712Y41703D01*
X8696Y41625D01*
Y41275D01*
X8712Y41197D01*
X8733Y41164D01*
X8720Y41155D01*
X8664Y41073D01*
X8645Y40975D01*
Y40950D01*
X9550D01*
X10455D01*
Y40975D01*
X10436Y41073D01*
X10380Y41155D01*
X10367Y41164D01*
X10388Y41197D01*
X10404Y41275D01*
Y41625D01*
X10388Y41703D01*
X10344Y41769D01*
Y41781D01*
X10388Y41847D01*
X10404Y41924D01*
Y42276D01*
X10388Y42353D01*
X10371Y42380D01*
X10441Y42518D01*
X10443Y42521D01*
X10796D01*
X10955Y42361D01*
Y41148D01*
X10860Y41085D01*
X10761Y40936D01*
X10726Y40761D01*
X10761Y40585D01*
X10860Y40436D01*
X11009Y40337D01*
X11185Y40302D01*
X11360Y40337D01*
X11509Y40436D01*
X11609Y40585D01*
X11644Y40761D01*
X11705Y40822D01*
X11730Y40817D01*
X11905Y40852D01*
X12054Y40951D01*
X12154Y41100D01*
X12160Y41131D01*
X12335Y41249D01*
X12344Y41247D01*
X12520Y41282D01*
X12669Y41381D01*
X12768Y41530D01*
X12803Y41706D01*
X12925Y41719D01*
X12930Y41718D01*
X13106Y41753D01*
X13210Y41823D01*
X13351Y41764D01*
X13360Y41756D01*
Y39912D01*
X13293Y39812D01*
X13258Y39636D01*
X13293Y39461D01*
X13392Y39312D01*
X13541Y39212D01*
X13717Y39177D01*
X13892Y39212D01*
X14041Y39312D01*
X14141Y39461D01*
X14175Y39636D01*
X14141Y39812D01*
X14074Y39912D01*
Y44968D01*
X14099Y44993D01*
X14472D01*
X14596Y44875D01*
Y44525D01*
X14612Y44447D01*
X14652Y44375D01*
X14612Y44303D01*
X14596Y44225D01*
Y43875D01*
X14612Y43797D01*
X14656Y43731D01*
Y43719D01*
X14612Y43653D01*
X14596Y43576D01*
Y43224D01*
X14612Y43147D01*
X14652Y43075D01*
X14612Y43003D01*
X14596Y42925D01*
Y42575D01*
X14612Y42497D01*
X14656Y42431D01*
Y42419D01*
X14612Y42353D01*
X14596Y42276D01*
Y41924D01*
X14612Y41847D01*
X14652Y41775D01*
X14612Y41703D01*
X14596Y41625D01*
Y41275D01*
X14612Y41197D01*
X14656Y41131D01*
Y41119D01*
X14612Y41053D01*
X14596Y40975D01*
Y40625D01*
X14612Y40547D01*
X14656Y40481D01*
X14722Y40437D01*
X14800Y40421D01*
X16101D01*
X16178Y40437D01*
X16244Y40481D01*
X16288Y40547D01*
X16293Y40571D01*
X16780D01*
X17015Y40335D01*
X17090Y40286D01*
X17177Y40268D01*
X19484D01*
X19543Y40177D01*
X19556Y40122D01*
X19518Y40065D01*
X19501Y39977D01*
Y39400D01*
X19200D01*
Y37350D01*
X19471D01*
Y36670D01*
X19405Y36604D01*
X16600D01*
Y36925D01*
X15500D01*
Y35825D01*
X16600D01*
Y36146D01*
X19500D01*
X19588Y36163D01*
X19662Y36213D01*
X19862Y36413D01*
X19912Y36487D01*
X19929Y36575D01*
Y37350D01*
X20260D01*
Y39400D01*
X19959D01*
Y39882D01*
X20708Y40631D01*
X22336D01*
X22393Y40493D01*
X22108Y40207D01*
X22058Y40133D01*
X22041Y40045D01*
Y39400D01*
X21740D01*
Y37350D01*
X22041D01*
Y33440D01*
X22005Y33404D01*
X16600D01*
Y33725D01*
X15500D01*
Y32625D01*
X16600D01*
Y32946D01*
X22100D01*
X22188Y32963D01*
X22262Y33013D01*
X22432Y33183D01*
X22482Y33257D01*
X22499Y33345D01*
Y37350D01*
X22800D01*
Y39400D01*
X22499D01*
Y39950D01*
X22811Y40262D01*
X23220D01*
X23300Y40112D01*
X23276Y40076D01*
X23241Y39900D01*
X23276Y39724D01*
X23376Y39576D01*
X23524Y39476D01*
X23700Y39441D01*
X23876Y39476D01*
X24024Y39576D01*
X24124Y39724D01*
X24153Y39871D01*
X25205D01*
X25271Y39805D01*
Y39672D01*
X25217Y39592D01*
X25194Y39475D01*
Y38075D01*
X25217Y37958D01*
X25284Y37859D01*
X25383Y37792D01*
X25500Y37769D01*
X25617Y37792D01*
X25638Y37807D01*
X25750Y37847D01*
X25862Y37807D01*
X25883Y37792D01*
X26000Y37769D01*
X26117Y37792D01*
X26121Y37795D01*
X26271Y37715D01*
Y36921D01*
X26288Y36834D01*
X26338Y36759D01*
X27234Y35863D01*
X27294Y35823D01*
X27312Y35745D01*
X27316Y35659D01*
X27238Y35608D01*
X27138Y35643D01*
X27117Y35658D01*
X27000Y35681D01*
X26883Y35658D01*
X26752Y35627D01*
X26650Y35696D01*
Y34675D01*
Y33654D01*
X26752Y33723D01*
X26883Y33692D01*
X27000Y33669D01*
X27117Y33692D01*
X27216Y33759D01*
X27362Y33707D01*
X27383Y33692D01*
X27500Y33669D01*
X27617Y33692D01*
X27716Y33759D01*
X27783Y33858D01*
X27806Y33975D01*
Y35375D01*
X27783Y35492D01*
X27716Y35591D01*
X27725Y35766D01*
X27750Y35796D01*
X28650D01*
Y35475D01*
X28971D01*
Y34063D01*
X28988Y33975D01*
X29038Y33901D01*
X29126Y33813D01*
X29099Y33679D01*
X29134Y33503D01*
X29233Y33354D01*
X29382Y33255D01*
X29558Y33220D01*
X29733Y33255D01*
X29882Y33354D01*
X29982Y33503D01*
X30017Y33679D01*
X29982Y33854D01*
X29882Y34003D01*
X29733Y34102D01*
X29558Y34137D01*
X29429Y34260D01*
Y35475D01*
X29750D01*
Y36560D01*
X30250D01*
Y35475D01*
X30628D01*
Y34872D01*
X30547Y34737D01*
X30371Y34702D01*
X30222Y34602D01*
X30123Y34453D01*
X30088Y34278D01*
X30123Y34102D01*
X30222Y33953D01*
X30371Y33854D01*
X30547Y33819D01*
X30722Y33854D01*
X30871Y33953D01*
X30971Y34102D01*
X31006Y34278D01*
X30971Y34453D01*
X31019Y34502D01*
X31019Y34502D01*
X31069Y34576D01*
X31087Y34664D01*
X31087Y34664D01*
Y35475D01*
X31350D01*
Y36575D01*
X31164D01*
X31029Y36623D01*
X31012Y36711D01*
X30962Y36785D01*
X30962Y36785D01*
X30923Y36825D01*
X30985Y36975D01*
X31350D01*
Y38075D01*
X31157D01*
Y43798D01*
X31130Y43935D01*
X31052Y44050D01*
X29825Y45277D01*
X29710Y45355D01*
X29573Y45382D01*
X29250D01*
Y45575D01*
X28150D01*
Y45382D01*
X27650D01*
Y45600D01*
X26550D01*
Y45382D01*
X25390D01*
X25365Y45407D01*
Y47071D01*
X25998D01*
Y49026D01*
X25823D01*
X25766Y49165D01*
X26776Y50176D01*
X26885D01*
X26929Y50147D01*
X27104Y50112D01*
X27280Y50147D01*
X27429Y50246D01*
X27528Y50395D01*
X27563Y50571D01*
X27528Y50746D01*
X27429Y50895D01*
X27280Y50995D01*
X27104Y51030D01*
X26929Y50995D01*
X26780Y50895D01*
X26776Y50889D01*
X26629D01*
X26492Y50862D01*
X26376Y50785D01*
X24765Y49174D01*
X24688Y49058D01*
X24687Y49055D01*
X24521Y48987D01*
X24491Y49007D01*
X24358Y49033D01*
X24225Y49007D01*
X24112Y48931D01*
X24083D01*
X24034Y48978D01*
X24031Y49181D01*
X26961Y52112D01*
X27011Y52186D01*
X27028Y52274D01*
Y52475D01*
X27350D01*
Y53575D01*
X26250D01*
Y52475D01*
X26463D01*
X26526Y52325D01*
X25659Y51459D01*
X25521Y51533D01*
X25529Y51575D01*
Y52475D01*
X25850D01*
Y53575D01*
X24750D01*
Y52475D01*
X25071D01*
Y51670D01*
X24179Y50779D01*
X24029Y50841D01*
Y52475D01*
X24350D01*
Y53575D01*
X23250D01*
Y52475D01*
X23571D01*
Y50870D01*
X22679Y49979D01*
X22529Y50041D01*
Y52475D01*
X22850D01*
Y53575D01*
X21750D01*
Y52475D01*
X22071D01*
Y50070D01*
X21638Y49637D01*
X21588Y49563D01*
X21571Y49475D01*
Y49055D01*
X21421Y48990D01*
X21337Y49068D01*
Y49549D01*
X21320Y49637D01*
X21270Y49711D01*
X21029Y49952D01*
Y52475D01*
X21350D01*
Y53575D01*
X20250D01*
Y52475D01*
X20571D01*
Y49911D01*
X20426Y49843D01*
X19547Y50722D01*
Y52475D01*
X19850D01*
Y53575D01*
X18750D01*
Y52475D01*
X19088D01*
Y50627D01*
X19106Y50540D01*
X19141Y50486D01*
X19025Y50391D01*
X18029Y51386D01*
Y52475D01*
X18350D01*
Y53575D01*
X17250D01*
Y52475D01*
X17571D01*
Y51291D01*
X17583Y51229D01*
X17518Y51169D01*
X17459Y51140D01*
X16529Y52070D01*
Y52475D01*
X16850D01*
Y53575D01*
X15750D01*
Y52475D01*
X16071D01*
Y51975D01*
X16088Y51887D01*
X16138Y51813D01*
X18830Y49121D01*
X18734Y49004D01*
X18660Y49054D01*
X18658Y49054D01*
Y48049D01*
X18508D01*
D01*
X18658D01*
Y47043D01*
X18660Y47044D01*
X18766Y47115D01*
X18912Y47166D01*
X19025Y47091D01*
X19158Y47064D01*
X19291Y47091D01*
X19403Y47166D01*
X19562D01*
X19675Y47091D01*
X19808Y47064D01*
X19941Y47091D01*
X20053Y47166D01*
X20212D01*
X20325Y47091D01*
X20458Y47064D01*
X20591Y47091D01*
X20703Y47166D01*
X20862D01*
X20975Y47091D01*
X21108Y47064D01*
X21241Y47091D01*
X21353Y47166D01*
X21512D01*
X21625Y47091D01*
X21758Y47064D01*
X21891Y47091D01*
X22003Y47166D01*
X22162D01*
X22275Y47091D01*
X22408Y47064D01*
X22541Y47091D01*
X22653Y47166D01*
X22812D01*
X22925Y47091D01*
X23058Y47064D01*
X23191Y47091D01*
X23303Y47166D01*
X23462D01*
X23575Y47091D01*
X23708Y47064D01*
X23841Y47091D01*
X23953Y47166D01*
X24112D01*
X24225Y47091D01*
X24358Y47064D01*
X24491Y47091D01*
X24501Y47098D01*
X24651Y47017D01*
Y45259D01*
X24678Y45123D01*
X24755Y45007D01*
X24990Y44773D01*
X25106Y44695D01*
X25242Y44668D01*
X26550D01*
Y44500D01*
X27650D01*
Y44668D01*
X28150D01*
Y44475D01*
X29250D01*
Y44668D01*
X29425D01*
X30443Y43650D01*
Y38075D01*
X30250D01*
Y37882D01*
X29750D01*
Y38075D01*
X28650D01*
Y37832D01*
X28331D01*
X27857Y38306D01*
Y40399D01*
X27924Y40499D01*
X27959Y40675D01*
X27924Y40851D01*
X27824Y40999D01*
X27812Y41008D01*
X27791Y41112D01*
X27714Y41228D01*
X27173Y41769D01*
X27058Y41846D01*
X26921Y41873D01*
X26045D01*
X26015Y41903D01*
Y42398D01*
X26005Y42447D01*
Y43035D01*
X25978Y43168D01*
X25903Y43281D01*
X25791Y43356D01*
X25658Y43382D01*
X25525Y43356D01*
X25412Y43281D01*
X25253D01*
X25141Y43356D01*
X25008Y43382D01*
X24875Y43356D01*
X24762Y43281D01*
X24603D01*
X24491Y43356D01*
X24358Y43382D01*
X24225Y43356D01*
X24112Y43281D01*
X23953D01*
X23841Y43356D01*
X23708Y43382D01*
X23575Y43356D01*
X23462Y43281D01*
X23303D01*
X23191Y43356D01*
X23058Y43382D01*
X22925Y43356D01*
X22812Y43281D01*
X22653D01*
X22541Y43356D01*
X22408Y43382D01*
X22275Y43356D01*
X22162Y43281D01*
X22003D01*
X21891Y43356D01*
X21758Y43382D01*
X21625Y43356D01*
X21512Y43281D01*
X21353D01*
X21241Y43356D01*
X21108Y43382D01*
X20975Y43356D01*
X20862Y43281D01*
X20703D01*
X20591Y43356D01*
X20458Y43382D01*
X20325Y43356D01*
X20212Y43281D01*
X20053D01*
X19941Y43356D01*
X19808Y43382D01*
X19675Y43356D01*
X19562Y43281D01*
X19403D01*
X19291Y43356D01*
X19158Y43382D01*
X19025Y43356D01*
X18912Y43281D01*
X18753D01*
X18695Y43320D01*
X18657Y43494D01*
X19757Y44594D01*
X22180D01*
X22276Y44451D01*
X22424Y44351D01*
X22600Y44316D01*
X22776Y44351D01*
X22924Y44451D01*
X23024Y44599D01*
X23059Y44775D01*
X23024Y44951D01*
X22924Y45099D01*
X22776Y45199D01*
X22600Y45234D01*
X22424Y45199D01*
X22276Y45099D01*
X22245Y45053D01*
X19662D01*
X19574Y45036D01*
X19500Y44986D01*
X19500Y44986D01*
X18003Y43489D01*
X17845Y43543D01*
X17824Y43651D01*
X17724Y43799D01*
X17724Y43800D01*
Y43920D01*
X17823Y44069D01*
X17858Y44245D01*
X17823Y44420D01*
X17724Y44569D01*
Y44639D01*
X17768Y44669D01*
X17868Y44818D01*
X17903Y44994D01*
X17868Y45169D01*
X17768Y45318D01*
X17745Y45334D01*
X17724Y45501D01*
X17824Y45649D01*
X17859Y45825D01*
X17824Y46001D01*
X17724Y46149D01*
X17576Y46249D01*
X17400Y46284D01*
X17224Y46249D01*
X17150Y46199D01*
X17000Y46279D01*
Y47250D01*
X16800D01*
Y47632D01*
X16773Y47769D01*
X16695Y47884D01*
X15127Y49453D01*
Y56105D01*
X15270D01*
Y59305D01*
X15142D01*
Y59777D01*
X15224Y59899D01*
X15259Y60075D01*
X15224Y60251D01*
X15124Y60399D01*
X14976Y60499D01*
X14800Y60534D01*
D02*
G37*
G36*
X18358Y49054D02*
X18355Y49054D01*
X18226Y48967D01*
X18140Y48838D01*
X18110Y48686D01*
Y48199D01*
X18358D01*
Y49054D01*
D02*
G37*
G36*
Y47899D02*
X18110D01*
Y47411D01*
X18140Y47259D01*
X18226Y47130D01*
X18355Y47044D01*
X18358Y47043D01*
Y47899D01*
D02*
G37*
G36*
X15550Y47300D02*
X15100D01*
Y46850D01*
X15550D01*
Y47300D01*
D02*
G37*
G36*
X14800D02*
X14350D01*
Y46850D01*
X14800D01*
Y47300D01*
D02*
G37*
G36*
X27700Y47150D02*
X27250D01*
Y46700D01*
X27700D01*
Y47150D01*
D02*
G37*
G36*
X26950D02*
X26500D01*
Y46700D01*
X26950D01*
Y47150D01*
D02*
G37*
G36*
X29300Y47125D02*
X28850D01*
Y46675D01*
X29300D01*
Y47125D01*
D02*
G37*
G36*
X28550D02*
X28100D01*
Y46675D01*
X28550D01*
Y47125D01*
D02*
G37*
G36*
X15550Y46550D02*
X15100D01*
Y46100D01*
X15550D01*
Y46550D01*
D02*
G37*
G36*
X14800D02*
X14350D01*
Y46100D01*
X14800D01*
Y46550D01*
D02*
G37*
G36*
X27700Y46400D02*
X27250D01*
Y45950D01*
X27700D01*
Y46400D01*
D02*
G37*
G36*
X26950D02*
X26500D01*
Y45950D01*
X26950D01*
Y46400D01*
D02*
G37*
G36*
X29300Y46375D02*
X28850D01*
Y45925D01*
X29300D01*
Y46375D01*
D02*
G37*
G36*
X28550D02*
X28100D01*
Y45925D01*
X28550D01*
Y46375D01*
D02*
G37*
G36*
X10455Y40650D02*
X9700D01*
Y40370D01*
X10200D01*
X10298Y40389D01*
X10380Y40445D01*
X10436Y40527D01*
X10455Y40625D01*
Y40650D01*
D02*
G37*
G36*
X9400D02*
X8645D01*
Y40625D01*
X8664Y40527D01*
X8720Y40445D01*
X8802Y40389D01*
X8899Y40370D01*
X9400D01*
Y40650D01*
D02*
G37*
G36*
X18990Y39400D02*
X17930D01*
Y37350D01*
X18990D01*
Y39400D01*
D02*
G37*
G36*
X9300Y39734D02*
X9124Y39699D01*
X8976Y39599D01*
X8876Y39451D01*
X8841Y39275D01*
X8876Y39099D01*
X8976Y38951D01*
X9124Y38851D01*
X9300Y38816D01*
X9476Y38851D01*
X9624Y38951D01*
X9688Y39046D01*
X11705D01*
X12676Y38074D01*
X12751Y38025D01*
X12839Y38007D01*
X14325D01*
X14347Y37973D01*
X14403Y37936D01*
Y37776D01*
X14294Y37656D01*
X12736D01*
X12648Y37638D01*
X12574Y37588D01*
X11290Y36304D01*
X9788D01*
X9724Y36399D01*
X9576Y36499D01*
X9400Y36534D01*
X9224Y36499D01*
X9076Y36399D01*
X8976Y36251D01*
X8941Y36075D01*
X8976Y35899D01*
X9076Y35751D01*
X9224Y35651D01*
X9400Y35616D01*
X9576Y35651D01*
X9724Y35751D01*
X9788Y35846D01*
X11385D01*
X11472Y35863D01*
X11547Y35913D01*
X12831Y37197D01*
X14260D01*
X14312Y37125D01*
X14236Y36975D01*
X13950D01*
Y36525D01*
X15150D01*
Y36975D01*
X15125D01*
X15087Y37036D01*
X15060Y37125D01*
X15144Y37251D01*
X15179Y37426D01*
X15144Y37602D01*
X15045Y37751D01*
X14989Y37788D01*
Y37968D01*
X14996Y37973D01*
X15096Y38122D01*
X15131Y38297D01*
X15096Y38473D01*
X14996Y38622D01*
X14848Y38721D01*
X14672Y38756D01*
X14496Y38721D01*
X14347Y38622D01*
X14248Y38473D01*
X14247Y38466D01*
X12934D01*
X11962Y39437D01*
X11888Y39487D01*
X11800Y39504D01*
X9688D01*
X9624Y39599D01*
X9476Y39699D01*
X9300Y39734D01*
D02*
G37*
G36*
X15150Y36225D02*
X14700D01*
Y35775D01*
X15150D01*
Y36225D01*
D02*
G37*
G36*
X14400D02*
X13950D01*
Y35775D01*
X14400D01*
Y36225D01*
D02*
G37*
G36*
X26350Y35696D02*
X26250Y35629D01*
X26150Y35696D01*
Y34675D01*
Y33654D01*
X26250Y33721D01*
X26350Y33654D01*
Y34675D01*
Y35696D01*
D02*
G37*
G36*
X21012Y40469D02*
X20836Y40434D01*
X20687Y40334D01*
X20588Y40186D01*
X20553Y40010D01*
X20588Y39834D01*
X20687Y39686D01*
X20782Y39622D01*
Y39400D01*
X20470D01*
Y37350D01*
X20771D01*
Y35195D01*
X20580Y35004D01*
X16600D01*
Y35325D01*
X15500D01*
Y34225D01*
X16600D01*
Y34546D01*
X20675D01*
X20763Y34563D01*
X20837Y34613D01*
X21162Y34938D01*
X21212Y35012D01*
X21229Y35100D01*
Y37350D01*
X21530D01*
Y39400D01*
X21241D01*
Y39622D01*
X21336Y39686D01*
X21436Y39834D01*
X21471Y40010D01*
X21436Y40186D01*
X21336Y40334D01*
X21187Y40434D01*
X21012Y40469D01*
D02*
G37*
G36*
X15150Y35375D02*
X14700D01*
Y34925D01*
X15150D01*
Y35375D01*
D02*
G37*
G36*
X14400D02*
X13950D01*
Y34925D01*
X14400D01*
Y35375D01*
D02*
G37*
G36*
X15150Y34625D02*
X14700D01*
Y34175D01*
X15150D01*
Y34625D01*
D02*
G37*
G36*
X14400D02*
X13950D01*
Y34175D01*
X14400D01*
Y34625D01*
D02*
G37*
G36*
X15150Y33775D02*
X14700D01*
Y33325D01*
X15150D01*
Y33775D01*
D02*
G37*
G36*
X14400D02*
X13950D01*
Y33325D01*
X14400D01*
Y33775D01*
D02*
G37*
G36*
X27350Y33100D02*
X26900D01*
Y32650D01*
X27350D01*
Y33100D01*
D02*
G37*
G36*
X26600D02*
X26150D01*
Y32650D01*
X26600D01*
Y33100D01*
D02*
G37*
G36*
X15150Y33025D02*
X14700D01*
Y32575D01*
X15150D01*
Y33025D01*
D02*
G37*
G36*
X14400D02*
X13950D01*
Y32575D01*
X14400D01*
Y33025D01*
D02*
G37*
G36*
X27350Y32350D02*
X26900D01*
Y31900D01*
X27350D01*
Y32350D01*
D02*
G37*
G36*
X26600D02*
X26150D01*
Y31900D01*
X26600D01*
Y32350D01*
D02*
G37*
G36*
X24253Y38746D02*
X24078Y38711D01*
X23929Y38612D01*
X23829Y38463D01*
X23794Y38287D01*
X23829Y38112D01*
X23896Y38011D01*
Y32576D01*
X23052Y31732D01*
X22800D01*
Y32400D01*
X21740D01*
Y31732D01*
X21530D01*
Y32400D01*
X20470D01*
Y31732D01*
X20260D01*
Y32400D01*
X19200D01*
Y30350D01*
X20260D01*
Y31018D01*
X20470D01*
Y30350D01*
X21530D01*
Y31018D01*
X21740D01*
Y30350D01*
X22800D01*
Y31018D01*
X23200D01*
X23337Y31045D01*
X23452Y31123D01*
X24506Y32176D01*
X24550Y32242D01*
X24700Y32197D01*
Y31950D01*
X25021D01*
Y31525D01*
X24700D01*
Y30425D01*
X25021D01*
Y29825D01*
X24700D01*
Y28725D01*
X25800D01*
Y29825D01*
X25479D01*
Y30425D01*
X25800D01*
Y31525D01*
X25479D01*
Y31950D01*
X25800D01*
Y33050D01*
X25529D01*
Y33280D01*
X25662Y33413D01*
X25712Y33487D01*
X25726Y33557D01*
X25809Y33617D01*
X25841Y33634D01*
X25850Y33636D01*
Y34675D01*
Y35696D01*
X25748Y35627D01*
X25617Y35658D01*
X25500Y35681D01*
X25383Y35658D01*
X25284Y35591D01*
X25217Y35492D01*
X25194Y35375D01*
Y33975D01*
X25217Y33858D01*
X25271Y33778D01*
Y33670D01*
X25138Y33537D01*
X25088Y33463D01*
X25071Y33375D01*
Y33156D01*
X24965Y33050D01*
X24700Y33050D01*
X24610Y33163D01*
Y38011D01*
X24677Y38112D01*
X24712Y38287D01*
X24677Y38463D01*
X24578Y38612D01*
X24429Y38711D01*
X24253Y38746D01*
D02*
G37*
G36*
X28000Y33534D02*
X27824Y33499D01*
X27676Y33399D01*
X27576Y33251D01*
X27541Y33075D01*
X27576Y32899D01*
X27676Y32751D01*
X27771Y32687D01*
Y31270D01*
X27705Y31204D01*
X27300D01*
Y31525D01*
X26200D01*
Y30425D01*
X27300D01*
Y30746D01*
X27800D01*
X27888Y30763D01*
X27962Y30813D01*
X28162Y31013D01*
X28162Y31013D01*
X28212Y31087D01*
X28229Y31175D01*
X28229Y31175D01*
Y32687D01*
X28324Y32751D01*
X28424Y32899D01*
X28459Y33075D01*
X28424Y33251D01*
X28324Y33399D01*
X28176Y33499D01*
X28000Y33534D01*
D02*
G37*
G36*
X18990Y32400D02*
X17930D01*
Y30350D01*
X18990D01*
Y32400D01*
D02*
G37*
G36*
X27350Y29875D02*
X26900D01*
Y29425D01*
X27350D01*
Y29875D01*
D02*
G37*
G36*
X26600D02*
X26150D01*
Y29425D01*
X26600D01*
Y29875D01*
D02*
G37*
G36*
X27350Y29125D02*
X26900D01*
Y28675D01*
X27350D01*
Y29125D01*
D02*
G37*
G36*
X26600D02*
X26150D01*
Y28675D01*
X26600D01*
Y29125D01*
D02*
G37*
G36*
X9208Y29705D02*
X7358D01*
Y27855D01*
X9208D01*
Y29705D01*
D02*
G37*
G36*
X8433Y11964D02*
Y11150D01*
X9246D01*
X9233Y11255D01*
X9134Y11492D01*
X8978Y11696D01*
X8774Y11852D01*
X8537Y11950D01*
X8433Y11964D01*
D02*
G37*
G36*
X30991Y11946D02*
X30887Y11932D01*
X30650Y11834D01*
X30446Y11678D01*
X30290Y11474D01*
X30191Y11237D01*
X30178Y11132D01*
X30991D01*
Y11946D01*
D02*
G37*
G36*
X9246Y10850D02*
X8433D01*
Y10037D01*
X8537Y10050D01*
X8774Y10149D01*
X8978Y10305D01*
X9134Y10508D01*
X9233Y10746D01*
X9246Y10850D01*
D02*
G37*
G36*
X30991Y10832D02*
X30178D01*
X30191Y10728D01*
X30290Y10491D01*
X30446Y10287D01*
X30650Y10131D01*
X30887Y10032D01*
X30991Y10019D01*
Y10832D01*
D02*
G37*
%LPD*%
D10*
X34399Y47175D02*
G03*
X32401Y47175I-999J-50D01*
G01*
Y52175D02*
G03*
X34399Y52175I999J50D01*
G01*
X5001D02*
G03*
X6999Y52175I999J50D01*
G01*
Y47175D02*
G03*
X5001Y47175I-999J-50D01*
G01*
X16825Y5176D02*
G03*
X16825Y7174I-50J999D01*
G01*
X21825D02*
G03*
X21825Y5176I50J-999D01*
G01*
D13*
X24013Y40100D02*
X25300D01*
X25500Y39900D01*
X23813Y39900D02*
X24013Y40100D01*
X23700Y39900D02*
X23813D01*
X22270Y40045D02*
X22716Y40491D01*
X25284Y41091D02*
X26384D01*
X24851Y40791D02*
X26084D01*
X22716Y40491D02*
X25684D01*
X25008Y41367D02*
X25284Y41091D01*
X24347Y41296D02*
X24851Y40791D01*
X16298Y44712D02*
X17400Y45814D01*
Y45825D01*
X15462Y44712D02*
X16298D01*
X16530Y43388D02*
X17388Y44245D01*
X17399D01*
X16384Y44050D02*
X17327Y44994D01*
X17444D01*
X16050Y34775D02*
X20675D01*
X21000Y35100D02*
Y38375D01*
X20675Y34775D02*
X21000Y35100D01*
Y38375D02*
X21012Y38387D01*
Y40010D01*
X25500Y38775D02*
Y39900D01*
X16050Y36375D02*
X19500D01*
X19700Y36575D01*
Y38345D01*
X19730Y38375D01*
X23695Y42385D02*
X23708Y42398D01*
X23271Y40861D02*
X23695Y41285D01*
Y42385D01*
X20613Y40861D02*
X23271D01*
X19730Y39977D02*
X20613Y40861D01*
X19730Y38375D02*
Y39977D01*
X16050Y33175D02*
X22100D01*
X22270Y33345D02*
Y38375D01*
X22100Y33175D02*
X22270Y33345D01*
Y38375D02*
Y40045D01*
X26000Y38775D02*
Y40175D01*
X26000Y38775D02*
X26000Y38775D01*
X25684Y40491D02*
X26000Y40175D01*
X25500Y33575D02*
Y34675D01*
X25300Y33375D02*
X25500Y33575D01*
X25300Y32625D02*
Y33375D01*
X25250Y32575D02*
X25300Y32625D01*
X25250Y30975D02*
Y32575D01*
Y29275D02*
Y30975D01*
X27396Y36025D02*
X29200D01*
X26500Y36921D02*
Y38775D01*
Y36921D02*
X27396Y36025D01*
X27491Y36789D02*
X30634D01*
X27000Y37280D02*
Y38775D01*
Y37280D02*
X27491Y36789D01*
X19158Y48049D02*
Y49117D01*
X16300Y51975D02*
Y53025D01*
Y51975D02*
X19158Y49117D01*
X23708Y48049D02*
Y49183D01*
X26799Y52274D02*
Y53024D01*
X23708Y49183D02*
X26799Y52274D01*
X12344Y41706D02*
Y44132D01*
X26084Y40791D02*
X26500Y40375D01*
X26384Y41091D02*
X27000Y40475D01*
X17177Y40498D02*
X19523D01*
X19808Y40783D01*
Y42398D01*
X16602Y42763D02*
X17315Y43475D01*
X15450Y43400D02*
X15462Y43388D01*
X17514Y42675D02*
X19662Y44824D01*
X17315Y43475D02*
X17400D01*
Y42675D02*
X17514D01*
X19662Y44824D02*
X22551D01*
X15462Y43388D02*
X16530D01*
X15450Y44050D02*
X16384D01*
X15462Y42763D02*
X16602D01*
X22551Y44824D02*
X22600Y44775D01*
X28002Y28734D02*
X31113D01*
X31141Y28762D01*
X26750Y30975D02*
X27800D01*
X28000Y31175D01*
Y33075D01*
X12839Y38236D02*
X14611D01*
X9300Y39275D02*
X11800D01*
X12839Y38236D01*
X14611D02*
X14672Y38297D01*
X9400Y36075D02*
X11385D01*
X12736Y37426D01*
X14720D01*
X11730Y41276D02*
Y43055D01*
X11385Y43400D02*
X11730Y43055D01*
X11185Y40761D02*
Y42456D01*
X12916Y42191D02*
X12930Y42177D01*
X12916Y42191D02*
Y44559D01*
X21758Y48049D02*
X21800Y48091D01*
Y49475D01*
X22300Y49975D01*
Y53025D01*
X29558Y33679D02*
Y33705D01*
X29200Y34063D02*
X29558Y33705D01*
X29200Y34063D02*
Y36025D01*
X31114Y18575D02*
X31141Y18602D01*
X24347Y42387D02*
X24358Y42398D01*
X24347Y41296D02*
Y42387D01*
X26500Y38775D02*
Y40375D01*
X30547Y34354D02*
X30857Y34664D01*
X30547Y34278D02*
Y34354D01*
X30857Y34664D02*
Y35968D01*
X30800Y36025D02*
X30857Y35968D01*
X30800Y36025D02*
Y36623D01*
X27000Y38775D02*
Y40475D01*
X30634Y36789D02*
X30800Y36623D01*
X25008Y41367D02*
Y42398D01*
X16925Y41450D02*
X17414Y40961D01*
X19070D02*
X19158Y41048D01*
Y42398D01*
X17414Y40961D02*
X19070D01*
X16875Y40800D02*
X17177Y40498D01*
X22408Y48049D02*
Y49383D01*
X23800Y50775D01*
Y53025D01*
X23058Y49333D02*
X25300Y51575D01*
X9550Y44700D02*
X11776D01*
X12344Y44132D01*
X9550Y43400D02*
X11385D01*
X10891Y42750D02*
X11185Y42456D01*
X9550Y42750D02*
X10891D01*
X9550Y45350D02*
X12125D01*
X12916Y44559D01*
X9550Y44050D02*
X9558Y44042D01*
X11516D01*
X11523Y44035D01*
X15450Y40800D02*
X16875D01*
X16948Y42100D02*
X17672Y41376D01*
X15450Y42100D02*
X16948D01*
X17672Y41376D02*
X18430D01*
X18508Y42398D02*
X18517Y42388D01*
X18430Y41376D02*
X18517Y41463D01*
Y42388D01*
X15450Y41450D02*
X16925D01*
X15450Y44700D02*
X15462Y44712D01*
X15450Y42750D02*
X15462Y42763D01*
X20800Y49857D02*
X21108Y49549D01*
X20800Y49857D02*
Y53025D01*
X21108Y48049D02*
Y49549D01*
X19318Y50627D02*
Y53007D01*
X20458Y48049D02*
Y49487D01*
X19318Y50627D02*
X20458Y49487D01*
X17800Y51291D02*
X19808Y49283D01*
Y48049D02*
Y49283D01*
X17800Y51291D02*
Y53025D01*
X19300D02*
X19318Y53007D01*
X20800Y53025D02*
X20800Y53025D01*
X25300Y51575D02*
Y53025D01*
X23058Y48049D02*
Y49333D01*
X16270Y57705D02*
X16300Y57675D01*
Y54525D02*
Y57675D01*
X17770Y57705D02*
X17800Y57675D01*
Y54525D02*
Y57675D01*
X19270Y57705D02*
X19300Y57675D01*
Y54525D02*
Y57675D01*
X20770Y57705D02*
X20800Y57675D01*
Y54525D02*
Y57675D01*
X22270Y57705D02*
X22300Y57675D01*
Y54525D02*
Y57675D01*
X23770Y57705D02*
X23800Y57675D01*
Y54525D02*
Y57675D01*
X25270Y57705D02*
X25300Y57675D01*
Y54525D02*
Y57675D01*
X26770Y54555D02*
Y57705D01*
Y54555D02*
X26800Y54525D01*
D15*
X9385Y64325D02*
G03*
X7000Y61940I0J-2385D01*
G01*
X32400Y61929D02*
G03*
X30004Y64325I-2396J0D01*
G01*
X0Y0D02*
X40000D01*
X0D02*
Y71975D01*
X40000Y71950D02*
X40000Y0D01*
X0Y71975D02*
X40000D01*
X5001Y5176D02*
X16825D01*
X5001D02*
Y47175D01*
X21825Y5176D02*
X34399D01*
Y47175D01*
X5001Y52175D02*
Y66175D01*
X34399D01*
Y52175D02*
Y66175D01*
X7000Y7175D02*
X29850D01*
X7000D02*
Y61940D01*
X29850Y7175D02*
X32400Y9725D01*
X9400Y64325D02*
X30004D01*
X32400Y9725D02*
Y61925D01*
D16*
X16450Y46700D02*
D03*
X14950D02*
D03*
X25250Y32500D02*
D03*
X26750D02*
D03*
X16050Y36375D02*
D03*
Y33175D02*
D03*
Y34775D02*
D03*
X14550D02*
D03*
X25250Y29275D02*
D03*
Y30975D02*
D03*
X14550Y36375D02*
D03*
Y33175D02*
D03*
X26750Y29275D02*
D03*
Y30975D02*
D03*
D17*
X27100Y45050D02*
D03*
Y46550D02*
D03*
X29200Y37525D02*
D03*
X30800D02*
D03*
X28700Y45025D02*
D03*
Y46525D02*
D03*
X22300Y53025D02*
D03*
X29200Y36025D02*
D03*
X16300Y53025D02*
D03*
X30800Y36025D02*
D03*
X20800Y54525D02*
D03*
X22300D02*
D03*
X16300D02*
D03*
X17800D02*
D03*
X19300D02*
D03*
X25300D02*
D03*
Y53025D02*
D03*
X20800D02*
D03*
X23800D02*
D03*
Y54525D02*
D03*
X19300Y53025D02*
D03*
X26800D02*
D03*
Y54525D02*
D03*
X17800Y53025D02*
D03*
D18*
X19730Y38375D02*
D03*
X18460D02*
D03*
Y31375D02*
D03*
X21000Y38375D02*
D03*
X22270D02*
D03*
X21000Y31375D02*
D03*
X19730D02*
D03*
X22270D02*
D03*
D19*
X23708Y42398D02*
D03*
X25008Y48049D02*
D03*
X25658Y42398D02*
D03*
X24358Y48049D02*
D03*
X18508D02*
D03*
X24358Y42398D02*
D03*
X23058D02*
D03*
X22408D02*
D03*
X21758D02*
D03*
X21108D02*
D03*
X19158Y48049D02*
D03*
X19808D02*
D03*
X20458D02*
D03*
X21108D02*
D03*
X21758D02*
D03*
X22408D02*
D03*
X23058D02*
D03*
X23708D02*
D03*
X25008Y42398D02*
D03*
X20458D02*
D03*
X19808D02*
D03*
X19158D02*
D03*
X18508D02*
D03*
D20*
X26000Y38775D02*
D03*
X27500D02*
D03*
X25500D02*
D03*
X26500Y34675D02*
D03*
X26000D02*
D03*
X27000Y38775D02*
D03*
X27500Y34675D02*
D03*
X27000Y34675D02*
D03*
X26500Y38775D02*
D03*
X25500Y34675D02*
D03*
D21*
X14770Y57705D02*
D03*
X13270D02*
D03*
X16270D02*
D03*
X17770D02*
D03*
X19270D02*
D03*
X20770D02*
D03*
X22270D02*
D03*
X23770D02*
D03*
X25270D02*
D03*
X26770D02*
D03*
D22*
X15450Y45350D02*
D03*
X9550Y40800D02*
D03*
Y42100D02*
D03*
Y45350D02*
D03*
Y42750D02*
D03*
Y43400D02*
D03*
X15450Y41450D02*
D03*
X9550Y44700D02*
D03*
Y44050D02*
D03*
X15450Y42100D02*
D03*
X9550Y41450D02*
D03*
X15450Y40800D02*
D03*
Y44700D02*
D03*
Y44050D02*
D03*
Y43400D02*
D03*
Y42750D02*
D03*
D23*
X11320Y61505D02*
D03*
X28720D02*
D03*
D24*
X25658Y48049D02*
D03*
D35*
X19250Y2750D02*
D03*
X2500Y49500D02*
D03*
X37250Y27250D02*
D03*
D36*
X16443Y47040D02*
X16443Y47040D01*
X16443Y47040D02*
Y47632D01*
X16443Y45609D02*
Y47040D01*
X15475Y45375D02*
X16209D01*
X16443Y45609D01*
X14770Y49305D02*
X16443Y47632D01*
X8283Y13540D02*
X8300Y13558D01*
X12583D01*
X12600Y13575D01*
X19730Y31375D02*
X21000D01*
X22270D01*
X23200D02*
X24253Y32428D01*
X22270Y31375D02*
X23200D01*
X24253Y32428D02*
Y38287D01*
X15450Y45350D02*
X15475Y45375D01*
X25008Y48049D02*
X25017Y48058D01*
X29200Y37525D02*
X30800D01*
X25017Y48058D02*
Y48921D01*
X26629Y50533D02*
X27066D01*
X27104Y50571D01*
X25017Y48921D02*
X26629Y50533D01*
X24358Y48049D02*
X25008D01*
X14770Y57705D02*
X14785Y57720D01*
X29573Y45025D02*
X30800Y43798D01*
Y37525D02*
Y43798D01*
X27462Y40713D02*
Y40976D01*
Y40713D02*
X27500Y40675D01*
X13717Y45116D02*
X13951Y45350D01*
X15450D01*
X13717Y39636D02*
Y45116D01*
X26921Y41516D02*
X27462Y40976D01*
X25658Y41755D02*
Y42398D01*
X25897Y41516D02*
X26921D01*
X25658Y41755D02*
X25897Y41516D01*
X28183Y37475D02*
X29150D01*
X27500Y38158D02*
X28183Y37475D01*
X27500Y38158D02*
Y40675D01*
X29150Y37475D02*
X29200Y37525D01*
X14785Y60060D02*
X14800Y60075D01*
X14785Y57720D02*
Y60060D01*
X25242Y45025D02*
X27100D01*
X25008Y45259D02*
Y48049D01*
X28700Y45025D02*
X29573D01*
X27100D02*
X28700D01*
X25008Y45259D02*
X25242Y45025D01*
X14770Y49305D02*
Y57705D01*
D37*
X8283Y13540D02*
D03*
Y11000D02*
D03*
X31141Y10982D02*
D03*
Y18602D02*
D03*
Y16062D02*
D03*
Y26222D02*
D03*
X8283Y16080D02*
D03*
Y23700D02*
D03*
Y18620D02*
D03*
Y21160D02*
D03*
Y26240D02*
D03*
X31141Y23682D02*
D03*
Y21142D02*
D03*
Y13522D02*
D03*
D38*
X2500Y2500D02*
D03*
X37500Y62000D02*
D03*
Y2500D02*
D03*
X2500Y69500D02*
D03*
D39*
X8283Y28780D02*
D03*
X31141Y28762D02*
D03*
D40*
X17399Y44245D02*
D03*
X17444Y44994D02*
D03*
X21012Y40010D02*
D03*
X23700Y39900D02*
D03*
X12600Y13575D02*
D03*
X24253Y38287D02*
D03*
X27500Y40675D02*
D03*
X27104Y50571D02*
D03*
X13717Y39636D02*
D03*
X14800Y60075D02*
D03*
X9159Y7795D02*
D03*
X10159Y9795D02*
D03*
Y17795D02*
D03*
X9159Y19795D02*
D03*
X10159Y21795D02*
D03*
Y25795D02*
D03*
Y29795D02*
D03*
X9159Y31795D02*
D03*
X10159Y33795D02*
D03*
X9159Y47795D02*
D03*
X10159Y49795D02*
D03*
X9159Y51795D02*
D03*
X10159Y53795D02*
D03*
X9159Y55795D02*
D03*
X10159Y57795D02*
D03*
X9159Y59795D02*
D03*
X10159Y61795D02*
D03*
X11159Y7795D02*
D03*
X12159Y9795D02*
D03*
X11159Y11795D02*
D03*
Y15795D02*
D03*
X12159Y17795D02*
D03*
X11159Y19795D02*
D03*
X12159Y21795D02*
D03*
X11159Y23795D02*
D03*
X12159Y25795D02*
D03*
X11159Y27795D02*
D03*
X12159Y29795D02*
D03*
X11159Y31795D02*
D03*
X12159Y33795D02*
D03*
Y37795D02*
D03*
X11159Y47795D02*
D03*
X12159Y49795D02*
D03*
X11159Y51795D02*
D03*
X12159Y53795D02*
D03*
X11159Y55795D02*
D03*
X12159Y57795D02*
D03*
X11159Y59795D02*
D03*
X13159Y7795D02*
D03*
X14159Y9795D02*
D03*
X13159Y11795D02*
D03*
X14159Y13795D02*
D03*
X13159Y47795D02*
D03*
Y51795D02*
D03*
Y59795D02*
D03*
X14159Y61795D02*
D03*
X15159Y7795D02*
D03*
X16159Y9795D02*
D03*
X15159Y11795D02*
D03*
X16159Y13795D02*
D03*
X15159Y15795D02*
D03*
X16159Y17795D02*
D03*
X15159Y19795D02*
D03*
X16159Y21795D02*
D03*
X15159Y23795D02*
D03*
X16159Y25795D02*
D03*
X15159Y27795D02*
D03*
X16159Y29795D02*
D03*
X15159Y31795D02*
D03*
Y39795D02*
D03*
X16159Y61795D02*
D03*
X18159Y9795D02*
D03*
X17159Y11795D02*
D03*
X18159Y13795D02*
D03*
X17159Y15795D02*
D03*
X18159Y17795D02*
D03*
X17159Y19795D02*
D03*
X18159Y21795D02*
D03*
X17159Y23795D02*
D03*
X18159Y25795D02*
D03*
X17159Y27795D02*
D03*
X18159Y29795D02*
D03*
X17159Y31795D02*
D03*
X18159Y33795D02*
D03*
X17159Y35795D02*
D03*
Y39795D02*
D03*
X18159Y61795D02*
D03*
X20159Y9795D02*
D03*
X19159Y11795D02*
D03*
X20159Y13795D02*
D03*
X19159Y15795D02*
D03*
X20159Y17795D02*
D03*
X19159Y19795D02*
D03*
X20159Y21795D02*
D03*
X19159Y23795D02*
D03*
X20159Y25795D02*
D03*
X19159Y27795D02*
D03*
X20159Y29795D02*
D03*
Y33795D02*
D03*
X19159Y35795D02*
D03*
Y39795D02*
D03*
X20159Y61795D02*
D03*
X22159Y9795D02*
D03*
X21159Y11795D02*
D03*
X22159Y13795D02*
D03*
X21159Y15795D02*
D03*
X22159Y17795D02*
D03*
X21159Y19795D02*
D03*
X22159Y21795D02*
D03*
X21159Y23795D02*
D03*
X22159Y25795D02*
D03*
X21159Y27795D02*
D03*
X22159Y29795D02*
D03*
Y45795D02*
D03*
Y61795D02*
D03*
X23159Y7795D02*
D03*
X24159Y9795D02*
D03*
X23159Y11795D02*
D03*
X24159Y13795D02*
D03*
X23159Y15795D02*
D03*
X24159Y17795D02*
D03*
X23159Y19795D02*
D03*
X24159Y21795D02*
D03*
X23159Y23795D02*
D03*
X24159Y25795D02*
D03*
X23159Y27795D02*
D03*
X24159Y29795D02*
D03*
X23159Y35795D02*
D03*
Y43795D02*
D03*
X24159Y61795D02*
D03*
X25159Y7795D02*
D03*
X26159Y9795D02*
D03*
X25159Y11795D02*
D03*
X26159Y13795D02*
D03*
X25159Y15795D02*
D03*
X26159Y17795D02*
D03*
X25159Y19795D02*
D03*
X26159Y21795D02*
D03*
X25159Y23795D02*
D03*
X26159Y25795D02*
D03*
X25159Y27795D02*
D03*
Y43795D02*
D03*
X26159Y61795D02*
D03*
X27159Y7795D02*
D03*
X28159Y9795D02*
D03*
X27159Y11795D02*
D03*
X28159Y13795D02*
D03*
X27159Y15795D02*
D03*
Y19795D02*
D03*
Y23795D02*
D03*
Y27795D02*
D03*
X28159Y41795D02*
D03*
X27159Y43795D02*
D03*
Y47795D02*
D03*
X28159Y49795D02*
D03*
Y53795D02*
D03*
Y57795D02*
D03*
X27159Y59795D02*
D03*
X29159Y7795D02*
D03*
X30159Y9795D02*
D03*
X29159Y11795D02*
D03*
Y39795D02*
D03*
Y43795D02*
D03*
X30159Y45795D02*
D03*
X29159Y47795D02*
D03*
X30159Y49795D02*
D03*
X29159Y51795D02*
D03*
X30159Y53795D02*
D03*
X29159Y55795D02*
D03*
X30159Y57795D02*
D03*
X29159Y59795D02*
D03*
X30159Y61795D02*
D03*
X19104Y45876D02*
D03*
X20053Y43960D02*
D03*
X23618Y46120D02*
D03*
X17579Y48990D02*
D03*
X14120Y49795D02*
D03*
X16140Y50324D02*
D03*
X12344Y41706D02*
D03*
X17400Y43475D02*
D03*
Y42675D02*
D03*
X28002Y28734D02*
D03*
X28000Y33075D02*
D03*
X14672Y38297D02*
D03*
X14720Y37426D02*
D03*
X9400Y36075D02*
D03*
X9300Y39275D02*
D03*
X11730Y41276D02*
D03*
X11185Y40761D02*
D03*
X12930Y42177D02*
D03*
X22600Y44775D02*
D03*
X29558Y33679D02*
D03*
X30547Y34278D02*
D03*
X11523Y44035D02*
D03*
X17400Y45825D02*
D03*
M02*
