G04*
G04 #@! TF.GenerationSoftware,Altium Limited,Altium Designer,26.6.0 (10)*
G04*
G04 Layer_Physical_Order=2*
G04 Layer_Color=16711680*
G04 Board_Origin=11311025|13478347*
%FSLAX43Y43*%
%MOMM*%
G71*
G04*
G04 #@! TF.SameCoordinates,DD9B497A-F5E9-495D-854C-5C37AF66DC5B*
G04*
G04*
G04 #@! TF.FilePolarity,Positive*
G04*
G01*
G75*
%ADD10C,0.250*%
%ADD13C,0.150*%
%ADD15C,0.254*%
%ADD17R,0.800X0.800*%
%ADD21R,0.700X2.900*%
%ADD23R,1.100X1.900*%
%ADD36C,0.400*%
%ADD37C,1.550*%
%ADD38C,1.500*%
%ADD39R,1.550X1.550*%
%ADD40C,0.600*%
%ADD41C,0.254*%
G36*
X30644Y64037D02*
X31043Y63872D01*
X31402Y63632D01*
X31707Y63327D01*
X31947Y62968D01*
X32112Y62569D01*
X32196Y62145D01*
Y61929D01*
Y52580D01*
X32076Y52499D01*
X31976Y52351D01*
X31941Y52175D01*
X31976Y51999D01*
X32076Y51851D01*
X32196Y51770D01*
Y51580D01*
X32076Y51499D01*
X31976Y51351D01*
X31941Y51175D01*
X31976Y50999D01*
X32076Y50851D01*
X32196Y50770D01*
Y50580D01*
X32076Y50499D01*
X31976Y50351D01*
X31941Y50175D01*
X31976Y49999D01*
X32076Y49851D01*
X32196Y49770D01*
Y49580D01*
X32076Y49499D01*
X31976Y49351D01*
X31941Y49175D01*
X31976Y48999D01*
X32076Y48851D01*
X32196Y48770D01*
Y48580D01*
X32076Y48499D01*
X31976Y48351D01*
X31941Y48175D01*
X31976Y47999D01*
X32076Y47851D01*
X32196Y47770D01*
Y47580D01*
X32076Y47499D01*
X31976Y47351D01*
X31941Y47175D01*
X31976Y46999D01*
X32076Y46851D01*
X32196Y46770D01*
Y29736D01*
X32066Y29687D01*
X32046Y29687D01*
X30216D01*
Y27837D01*
X32046D01*
X32066Y27837D01*
X32196Y27789D01*
Y26446D01*
X32046Y26437D01*
X32043Y26464D01*
X31949Y26689D01*
X31801Y26882D01*
X31608Y27030D01*
X31383Y27124D01*
X31141Y27155D01*
X30900Y27124D01*
X30675Y27030D01*
X30482Y26882D01*
X30333Y26689D01*
X30240Y26464D01*
X30208Y26222D01*
X30240Y25981D01*
X30333Y25756D01*
X30482Y25563D01*
X30675Y25414D01*
X30900Y25321D01*
X31141Y25289D01*
X31383Y25321D01*
X31608Y25414D01*
X31801Y25563D01*
X31949Y25756D01*
X32043Y25981D01*
X32046Y26008D01*
X32196Y25998D01*
Y23906D01*
X32046Y23897D01*
X32043Y23924D01*
X31949Y24149D01*
X31801Y24342D01*
X31608Y24490D01*
X31383Y24584D01*
X31141Y24615D01*
X30900Y24584D01*
X30675Y24490D01*
X30482Y24342D01*
X30333Y24149D01*
X30240Y23924D01*
X30208Y23682D01*
X30240Y23441D01*
X30333Y23216D01*
X30482Y23023D01*
X30675Y22874D01*
X30900Y22781D01*
X31141Y22749D01*
X31383Y22781D01*
X31608Y22874D01*
X31801Y23023D01*
X31949Y23216D01*
X32043Y23441D01*
X32046Y23468D01*
X32196Y23458D01*
Y21366D01*
X32046Y21357D01*
X32043Y21384D01*
X31949Y21609D01*
X31801Y21802D01*
X31608Y21950D01*
X31383Y22044D01*
X31141Y22075D01*
X30900Y22044D01*
X30675Y21950D01*
X30482Y21802D01*
X30333Y21609D01*
X30240Y21384D01*
X30208Y21142D01*
X30240Y20901D01*
X30333Y20676D01*
X30482Y20483D01*
X30675Y20334D01*
X30900Y20241D01*
X31141Y20209D01*
X31383Y20241D01*
X31608Y20334D01*
X31801Y20483D01*
X31949Y20676D01*
X32043Y20901D01*
X32046Y20928D01*
X32196Y20918D01*
Y18826D01*
X32046Y18817D01*
X32043Y18844D01*
X31949Y19069D01*
X31801Y19262D01*
X31608Y19410D01*
X31383Y19504D01*
X31141Y19535D01*
X30900Y19504D01*
X30675Y19410D01*
X30482Y19262D01*
X30333Y19069D01*
X30240Y18844D01*
X30239Y18832D01*
X29568D01*
X29329Y19070D01*
Y33123D01*
X29479Y33235D01*
X29558Y33220D01*
X29733Y33255D01*
X29882Y33354D01*
X29982Y33503D01*
X30017Y33679D01*
X29982Y33854D01*
X29954Y33896D01*
X30024Y34025D01*
X30172Y34029D01*
X30222Y33953D01*
X30371Y33854D01*
X30547Y33819D01*
X30722Y33854D01*
X30871Y33953D01*
X30971Y34102D01*
X31006Y34278D01*
X30971Y34453D01*
X30871Y34602D01*
X30722Y34702D01*
X30547Y34737D01*
X30371Y34702D01*
X30222Y34602D01*
X30157Y34504D01*
X29200D01*
X29200Y34504D01*
X29112Y34487D01*
X29038Y34437D01*
X29038Y34437D01*
X28492Y33891D01*
X28442Y33817D01*
X28425Y33729D01*
Y33499D01*
X28424Y33499D01*
X28275Y33433D01*
X28176Y33499D01*
X28000Y33534D01*
X27863Y33506D01*
X22910Y38460D01*
X22835Y38509D01*
X22747Y38527D01*
X15060D01*
X14996Y38622D01*
X14848Y38721D01*
X14672Y38756D01*
X14496Y38721D01*
X14347Y38622D01*
X14248Y38473D01*
X14231Y38388D01*
X14224Y38350D01*
X14074Y38365D01*
Y39360D01*
X14141Y39461D01*
X14175Y39636D01*
X14141Y39812D01*
X14041Y39961D01*
X13892Y40060D01*
X13717Y40095D01*
X13541Y40060D01*
X13392Y39961D01*
X13293Y39812D01*
X13258Y39636D01*
X13293Y39461D01*
X13360Y39360D01*
Y14839D01*
X12543Y14022D01*
X12424Y13999D01*
X12276Y13899D01*
X12176Y13751D01*
X12141Y13575D01*
X12176Y13399D01*
X12276Y13251D01*
X12424Y13151D01*
X12600Y13116D01*
X12776Y13151D01*
X12924Y13251D01*
X13024Y13399D01*
X13047Y13518D01*
X13969Y14439D01*
X14046Y14555D01*
X14074Y14692D01*
Y38230D01*
X14224Y38245D01*
X14231Y38207D01*
X14248Y38122D01*
X14347Y37973D01*
X14403Y37936D01*
Y37755D01*
X14396Y37751D01*
X14296Y37602D01*
X14262Y37426D01*
X14296Y37251D01*
X14396Y37102D01*
X14545Y37002D01*
X14720Y36967D01*
X14896Y37002D01*
X15045Y37102D01*
X15108Y37197D01*
X22554D01*
X27756Y31995D01*
Y29110D01*
X27678Y29058D01*
X27578Y28909D01*
X27543Y28734D01*
X27578Y28558D01*
X27678Y28409D01*
X27827Y28310D01*
X28002Y28275D01*
X28178Y28310D01*
X28275Y28375D01*
X28425Y28307D01*
Y17021D01*
X28442Y16933D01*
X28492Y16859D01*
X29450Y15900D01*
X29525Y15850D01*
X29613Y15833D01*
X30239D01*
X30240Y15821D01*
X30333Y15596D01*
X30482Y15403D01*
X30675Y15254D01*
X30900Y15161D01*
X31141Y15129D01*
X31383Y15161D01*
X31608Y15254D01*
X31801Y15403D01*
X31949Y15596D01*
X32043Y15821D01*
X32046Y15848D01*
X32196Y15838D01*
Y13746D01*
X32046Y13737D01*
X32043Y13764D01*
X31949Y13989D01*
X31801Y14182D01*
X31608Y14330D01*
X31383Y14424D01*
X31141Y14455D01*
X30900Y14424D01*
X30675Y14330D01*
X30482Y14182D01*
X30333Y13989D01*
X30240Y13764D01*
X30208Y13522D01*
X30240Y13281D01*
X30333Y13056D01*
X30482Y12863D01*
X30675Y12714D01*
X30900Y12621D01*
X31141Y12589D01*
X31383Y12621D01*
X31608Y12714D01*
X31801Y12863D01*
X31949Y13056D01*
X32043Y13281D01*
X32046Y13308D01*
X32196Y13298D01*
Y11376D01*
X32046Y11346D01*
X31993Y11474D01*
X31837Y11678D01*
X31633Y11834D01*
X31396Y11932D01*
X31291Y11946D01*
Y10982D01*
Y10019D01*
X31396Y10032D01*
X31633Y10131D01*
X31837Y10287D01*
X31993Y10491D01*
X32046Y10619D01*
X32196Y10589D01*
Y9809D01*
X29766Y7379D01*
X22230D01*
X22149Y7499D01*
X22001Y7599D01*
X21825Y7634D01*
X21649Y7599D01*
X21501Y7499D01*
X21420Y7379D01*
X21230D01*
X21149Y7499D01*
X21001Y7599D01*
X20825Y7634D01*
X20649Y7599D01*
X20501Y7499D01*
X20420Y7379D01*
X20230D01*
X20149Y7499D01*
X20001Y7599D01*
X19825Y7634D01*
X19649Y7599D01*
X19501Y7499D01*
X19420Y7379D01*
X19230D01*
X19149Y7499D01*
X19001Y7599D01*
X18825Y7634D01*
X18649Y7599D01*
X18501Y7499D01*
X18420Y7379D01*
X18230D01*
X18149Y7499D01*
X18001Y7599D01*
X17825Y7634D01*
X17649Y7599D01*
X17501Y7499D01*
X17420Y7379D01*
X17230D01*
X17149Y7499D01*
X17001Y7599D01*
X16825Y7634D01*
X16649Y7599D01*
X16501Y7499D01*
X16420Y7379D01*
X7204D01*
Y10665D01*
X7354Y10695D01*
X7431Y10508D01*
X7587Y10305D01*
X7791Y10149D01*
X8028Y10050D01*
X8133Y10037D01*
Y11000D01*
Y11964D01*
X8028Y11950D01*
X7791Y11852D01*
X7587Y11696D01*
X7431Y11492D01*
X7354Y11306D01*
X7204Y11335D01*
Y13499D01*
X7354Y13509D01*
X7364Y13429D01*
X7382Y13299D01*
X7475Y13074D01*
X7623Y12880D01*
X7816Y12732D01*
X8041Y12639D01*
X8283Y12607D01*
X8524Y12639D01*
X8749Y12732D01*
X8942Y12880D01*
X9091Y13074D01*
X9184Y13299D01*
X9216Y13540D01*
X9184Y13782D01*
X9091Y14007D01*
X8942Y14200D01*
X8749Y14348D01*
X8524Y14441D01*
X8283Y14473D01*
X8041Y14441D01*
X7816Y14348D01*
X7623Y14200D01*
X7475Y14007D01*
X7382Y13782D01*
X7364Y13651D01*
X7354Y13572D01*
X7204Y13582D01*
Y16039D01*
X7354Y16049D01*
X7364Y15969D01*
X7382Y15839D01*
X7475Y15614D01*
X7623Y15420D01*
X7816Y15272D01*
X8041Y15179D01*
X8283Y15147D01*
X8524Y15179D01*
X8749Y15272D01*
X8942Y15420D01*
X9091Y15614D01*
X9184Y15839D01*
X9216Y16080D01*
X9184Y16322D01*
X9091Y16547D01*
X8942Y16740D01*
X8749Y16888D01*
X8524Y16981D01*
X8283Y17013D01*
X8041Y16981D01*
X7816Y16888D01*
X7623Y16740D01*
X7475Y16547D01*
X7382Y16322D01*
X7364Y16191D01*
X7354Y16112D01*
X7204Y16122D01*
Y18579D01*
X7354Y18589D01*
X7364Y18509D01*
X7382Y18379D01*
X7475Y18154D01*
X7623Y17960D01*
X7816Y17812D01*
X8041Y17719D01*
X8283Y17687D01*
X8524Y17719D01*
X8749Y17812D01*
X8942Y17960D01*
X9091Y18154D01*
X9184Y18379D01*
X9216Y18620D01*
X9184Y18862D01*
X9091Y19087D01*
X8942Y19280D01*
X8749Y19428D01*
X8524Y19521D01*
X8283Y19553D01*
X8041Y19521D01*
X7816Y19428D01*
X7623Y19280D01*
X7475Y19087D01*
X7382Y18862D01*
X7364Y18731D01*
X7354Y18652D01*
X7204Y18662D01*
Y21119D01*
X7354Y21129D01*
X7364Y21049D01*
X7382Y20919D01*
X7475Y20694D01*
X7623Y20500D01*
X7816Y20352D01*
X8041Y20259D01*
X8283Y20227D01*
X8524Y20259D01*
X8749Y20352D01*
X8942Y20500D01*
X9091Y20694D01*
X9184Y20919D01*
X9216Y21160D01*
X9184Y21402D01*
X9091Y21627D01*
X8942Y21820D01*
X8749Y21968D01*
X8524Y22061D01*
X8283Y22093D01*
X8041Y22061D01*
X7816Y21968D01*
X7623Y21820D01*
X7475Y21627D01*
X7382Y21402D01*
X7364Y21271D01*
X7354Y21192D01*
X7204Y21202D01*
Y23659D01*
X7354Y23669D01*
X7364Y23589D01*
X7382Y23459D01*
X7475Y23234D01*
X7623Y23040D01*
X7816Y22892D01*
X8041Y22799D01*
X8283Y22767D01*
X8524Y22799D01*
X8749Y22892D01*
X8942Y23040D01*
X9091Y23234D01*
X9184Y23459D01*
X9216Y23700D01*
X9184Y23942D01*
X9091Y24167D01*
X8942Y24360D01*
X8749Y24508D01*
X8524Y24601D01*
X8283Y24633D01*
X8041Y24601D01*
X7816Y24508D01*
X7623Y24360D01*
X7475Y24167D01*
X7382Y23942D01*
X7364Y23811D01*
X7354Y23732D01*
X7204Y23742D01*
Y26199D01*
X7354Y26209D01*
X7364Y26129D01*
X7382Y25999D01*
X7475Y25774D01*
X7623Y25580D01*
X7816Y25432D01*
X8041Y25339D01*
X8283Y25307D01*
X8524Y25339D01*
X8749Y25432D01*
X8942Y25580D01*
X9091Y25774D01*
X9184Y25999D01*
X9216Y26240D01*
X9184Y26482D01*
X9091Y26707D01*
X8942Y26900D01*
X8749Y27048D01*
X8524Y27141D01*
X8283Y27173D01*
X8041Y27141D01*
X7816Y27048D01*
X7623Y26900D01*
X7475Y26707D01*
X7382Y26482D01*
X7364Y26351D01*
X7354Y26272D01*
X7204Y26282D01*
Y46770D01*
X7324Y46851D01*
X7424Y46999D01*
X7459Y47175D01*
X7424Y47351D01*
X7324Y47499D01*
X7204Y47580D01*
Y47770D01*
X7324Y47851D01*
X7424Y47999D01*
X7459Y48175D01*
X7424Y48351D01*
X7324Y48499D01*
X7204Y48580D01*
Y48770D01*
X7324Y48851D01*
X7424Y48999D01*
X7459Y49175D01*
X7424Y49351D01*
X7324Y49499D01*
X7204Y49580D01*
Y49770D01*
X7324Y49851D01*
X7424Y49999D01*
X7459Y50175D01*
X7424Y50351D01*
X7324Y50499D01*
X7204Y50580D01*
Y50770D01*
X7324Y50851D01*
X7424Y50999D01*
X7459Y51175D01*
X7424Y51351D01*
X7324Y51499D01*
X7204Y51580D01*
Y51770D01*
X7324Y51851D01*
X7424Y51999D01*
X7459Y52175D01*
X7424Y52351D01*
X7324Y52499D01*
X7204Y52580D01*
Y61940D01*
Y62155D01*
X7288Y62576D01*
X7452Y62973D01*
X7691Y63330D01*
X7995Y63634D01*
X8352Y63873D01*
X8749Y64037D01*
X9170Y64121D01*
X30220D01*
X30644Y64037D01*
D02*
G37*
%LPC*%
G36*
X12050Y62600D02*
X11450D01*
Y61600D01*
X12050D01*
Y62600D01*
D02*
G37*
G36*
X29450D02*
X28850D01*
Y61600D01*
X29450D01*
Y62600D01*
D02*
G37*
G36*
X28550D02*
X27950D01*
Y61600D01*
X28550D01*
Y62600D01*
D02*
G37*
G36*
X11150D02*
X10550D01*
Y61600D01*
X11150D01*
Y62600D01*
D02*
G37*
G36*
X29450Y61300D02*
X28850D01*
Y60300D01*
X29450D01*
Y61300D01*
D02*
G37*
G36*
X28550D02*
X27950D01*
Y60300D01*
X28550D01*
Y61300D01*
D02*
G37*
G36*
X12050D02*
X11450D01*
Y60300D01*
X12050D01*
Y61300D01*
D02*
G37*
G36*
X11150D02*
X10550D01*
Y60300D01*
X11150D01*
Y61300D01*
D02*
G37*
G36*
X27300Y59300D02*
X26900D01*
Y57800D01*
X27300D01*
Y59300D01*
D02*
G37*
G36*
X26600D02*
X26200D01*
Y57800D01*
X26600D01*
Y59300D01*
D02*
G37*
G36*
X14800Y60534D02*
X14624Y60499D01*
X14476Y60399D01*
X14376Y60251D01*
X14341Y60075D01*
X14376Y59899D01*
X14476Y59751D01*
X14624Y59651D01*
X14800Y59616D01*
X14976Y59651D01*
X15076Y59718D01*
X24768D01*
X24893Y59593D01*
Y59250D01*
X24750D01*
Y56050D01*
X25048D01*
X25070Y55938D01*
X25110Y55879D01*
X25039Y55729D01*
X24423D01*
X24207Y55945D01*
X24250Y56050D01*
X24250D01*
Y59250D01*
X23250D01*
Y56050D01*
X23538D01*
X23553Y55975D01*
X23603Y55901D01*
X23644Y55859D01*
X23587Y55721D01*
X22879D01*
X22688Y55911D01*
X22745Y56050D01*
X22750D01*
Y59250D01*
X21750D01*
Y56050D01*
X22025D01*
Y56020D01*
X22043Y55933D01*
X22092Y55858D01*
X22112Y55839D01*
X22055Y55700D01*
X21413D01*
X21195Y55918D01*
X21250Y56050D01*
X21250D01*
Y59250D01*
X20250D01*
Y56050D01*
X20560D01*
Y56000D01*
X20577Y55912D01*
X20621Y55846D01*
X20606Y55780D01*
X20572Y55696D01*
X19927D01*
X19698Y55925D01*
X19750Y56050D01*
X19750D01*
Y59250D01*
X18750D01*
Y56050D01*
X19021D01*
Y56049D01*
X19038Y55961D01*
X19088Y55887D01*
X19132Y55843D01*
X19074Y55704D01*
X18395D01*
X18188Y55911D01*
X18245Y56050D01*
X18250D01*
Y59250D01*
X17250D01*
Y56050D01*
X17521D01*
Y56025D01*
X17538Y55937D01*
X17577Y55880D01*
X17546Y55763D01*
X17533Y55730D01*
X16870D01*
X16688Y55911D01*
X16745Y56050D01*
X16750D01*
Y59250D01*
X15750D01*
Y56050D01*
X16021D01*
Y56025D01*
X16038Y55937D01*
X16088Y55863D01*
X16108Y55843D01*
X16050Y55704D01*
X15416D01*
X15197Y55923D01*
X15250Y56050D01*
X15250D01*
Y59250D01*
X14250D01*
Y56050D01*
X14521D01*
Y56046D01*
X14538Y55958D01*
X14588Y55884D01*
X14672Y55800D01*
X14614Y55661D01*
X13852D01*
X13614Y55900D01*
X13676Y56050D01*
X13750D01*
Y59250D01*
X12750D01*
Y56050D01*
X13021D01*
Y55939D01*
X13038Y55851D01*
X13088Y55777D01*
X13595Y55270D01*
X13669Y55220D01*
X13757Y55203D01*
X14748D01*
X15126Y54825D01*
X15063Y54675D01*
X14850D01*
Y53575D01*
X15950D01*
Y54675D01*
X15629D01*
Y54875D01*
X15612Y54963D01*
X15562Y55037D01*
X15492Y55107D01*
X15550Y55246D01*
X16205D01*
X16626Y54825D01*
X16563Y54675D01*
X16350D01*
Y53575D01*
X17450D01*
Y54675D01*
X17129D01*
Y54875D01*
X17112Y54963D01*
X17062Y55037D01*
X16967Y55132D01*
X17025Y55271D01*
X17680D01*
X18121Y54830D01*
Y54675D01*
X17850D01*
Y53575D01*
X18950D01*
Y54675D01*
X18580D01*
Y54925D01*
X18580Y54925D01*
X18562Y55013D01*
X18512Y55087D01*
X18492Y55107D01*
X18550Y55246D01*
X19205D01*
X19626Y54825D01*
X19563Y54675D01*
X19350D01*
Y53575D01*
X20450D01*
Y54675D01*
X20129D01*
Y54875D01*
X20112Y54963D01*
X20062Y55037D01*
X20000Y55099D01*
X20058Y55238D01*
X20713D01*
X21126Y54825D01*
X21063Y54675D01*
X20850D01*
Y53575D01*
X21950D01*
Y54675D01*
X21629D01*
Y54875D01*
X21612Y54963D01*
X21562Y55037D01*
X21497Y55103D01*
X21554Y55241D01*
X22209D01*
X22626Y54825D01*
X22563Y54675D01*
X22350D01*
Y53575D01*
X23450D01*
Y54675D01*
X23129D01*
Y54875D01*
X23112Y54963D01*
X23062Y55037D01*
X22976Y55123D01*
X23034Y55262D01*
X23689D01*
X24126Y54825D01*
X24076Y54675D01*
X23850D01*
Y53575D01*
X24950D01*
Y54675D01*
X24620D01*
Y54885D01*
X24602Y54973D01*
X24552Y55047D01*
X24468Y55132D01*
X24525Y55270D01*
X25180D01*
X25626Y54825D01*
X25563Y54675D01*
X25350D01*
Y53575D01*
X26450D01*
Y54675D01*
X26129D01*
Y54875D01*
X26129Y54875D01*
X26112Y54963D01*
X26062Y55037D01*
X26062Y55037D01*
X25954Y55145D01*
X26016Y55295D01*
X26389D01*
X26743Y54941D01*
Y50841D01*
X26680Y50746D01*
X26645Y50571D01*
X26680Y50395D01*
X26780Y50246D01*
X26929Y50147D01*
X27104Y50112D01*
X27280Y50147D01*
X27429Y50246D01*
X27528Y50395D01*
X27563Y50571D01*
X27528Y50746D01*
X27457Y50853D01*
Y55089D01*
X27430Y55225D01*
X27352Y55341D01*
X26844Y55850D01*
X26906Y56000D01*
X27300D01*
Y57500D01*
X26750D01*
X26200D01*
Y56009D01*
X25971D01*
X25757Y56223D01*
Y57500D01*
X25750Y57534D01*
Y59250D01*
X25607D01*
Y59741D01*
X25580Y59877D01*
X25502Y59993D01*
X25168Y60327D01*
X25052Y60405D01*
X24916Y60432D01*
X15076D01*
X14976Y60499D01*
X14800Y60534D01*
D02*
G37*
G36*
X10366Y44637D02*
X10004D01*
X9889Y44590D01*
X9886Y44586D01*
X9869Y44590D01*
X9754Y44637D01*
X8969D01*
X8854Y44590D01*
X8807Y44475D01*
Y44204D01*
X8355D01*
X8267Y44187D01*
X8193Y44137D01*
X8105Y44049D01*
X8055Y43975D01*
X8038Y43887D01*
Y29705D01*
X7358D01*
Y27855D01*
X9208D01*
Y29705D01*
X8497D01*
Y43746D01*
X8807D01*
Y43475D01*
X8854Y43360D01*
X8969Y43313D01*
X9754D01*
X9875Y43200D01*
Y41650D01*
X9754Y41537D01*
X8969D01*
X8854Y41490D01*
X8807Y41375D01*
Y40375D01*
X8854Y40260D01*
X8867Y40255D01*
Y39601D01*
X8884Y39513D01*
X8901Y39488D01*
X8876Y39451D01*
X8841Y39275D01*
X8876Y39099D01*
X8976Y38951D01*
X9124Y38851D01*
X9300Y38816D01*
X9476Y38851D01*
X9624Y38951D01*
X9724Y39099D01*
X9725Y39103D01*
X9875Y39088D01*
Y38450D01*
X9754Y38337D01*
X8969D01*
X8854Y38290D01*
X8807Y38175D01*
Y37175D01*
X8854Y37060D01*
X8867Y37055D01*
Y36501D01*
X8884Y36413D01*
X8934Y36339D01*
X8994Y36278D01*
X8976Y36251D01*
X8941Y36075D01*
X8976Y35899D01*
X9076Y35751D01*
X9224Y35651D01*
X9400Y35616D01*
X9576Y35651D01*
X9724Y35751D01*
X9824Y35899D01*
X9859Y36075D01*
X9824Y36251D01*
X9724Y36399D01*
X9576Y36499D01*
X9400Y36534D01*
X9325Y36656D01*
Y37013D01*
X9754D01*
X9869Y37060D01*
X9886Y37064D01*
X9889Y37060D01*
X10004Y37013D01*
X10366D01*
X10481Y37060D01*
X10528Y37175D01*
Y38175D01*
X10481Y38290D01*
X10366Y38337D01*
X10333D01*
Y40213D01*
X10366D01*
X10481Y40260D01*
X10528Y40375D01*
Y41375D01*
X10481Y41490D01*
X10366Y41537D01*
X10333D01*
Y43313D01*
X10366D01*
X10481Y43360D01*
X10528Y43475D01*
Y43784D01*
X11149D01*
X11199Y43710D01*
X11348Y43611D01*
X11523Y43576D01*
X11699Y43611D01*
X11848Y43710D01*
X11947Y43859D01*
X11982Y44035D01*
X11947Y44210D01*
X11848Y44359D01*
X11699Y44459D01*
X11523Y44494D01*
X11348Y44459D01*
X11199Y44359D01*
X11121Y44243D01*
X10528D01*
Y44475D01*
X10481Y44590D01*
X10366Y44637D01*
D02*
G37*
G36*
X23450Y53175D02*
X22350D01*
Y52075D01*
X22671D01*
Y45292D01*
X22600Y45234D01*
X22424Y45199D01*
X22276Y45099D01*
X22176Y44951D01*
X22141Y44775D01*
X22176Y44599D01*
X22276Y44451D01*
X22424Y44351D01*
X22600Y44316D01*
X22776Y44351D01*
X22924Y44451D01*
X23024Y44599D01*
X23059Y44775D01*
X23034Y44898D01*
X23062Y44926D01*
X23112Y45000D01*
X23129Y45088D01*
X23129Y45088D01*
Y52075D01*
X23450D01*
Y53175D01*
D02*
G37*
G36*
X26450D02*
X25350D01*
Y52075D01*
X25671D01*
Y42674D01*
X24301Y41304D01*
X22713D01*
X22692Y41366D01*
X22688Y41454D01*
X22741Y41490D01*
X24462Y43211D01*
X24512Y43285D01*
X24529Y43373D01*
Y52075D01*
X24950D01*
Y53175D01*
X23850D01*
Y52075D01*
X24071D01*
Y43468D01*
X22484Y41881D01*
X19843D01*
X19781Y42031D01*
X21562Y43813D01*
X21612Y43887D01*
X21629Y43975D01*
Y52075D01*
X21950D01*
Y53175D01*
X20850D01*
Y52075D01*
X21171D01*
Y44070D01*
X19454Y42353D01*
X17907D01*
X17820Y42476D01*
X17825Y42503D01*
X17859Y42675D01*
X17824Y42851D01*
X17738Y42979D01*
X17724Y43045D01*
Y43122D01*
X17834Y43246D01*
X17978D01*
X18066Y43263D01*
X18141Y43313D01*
X20062Y45234D01*
X20112Y45309D01*
X20129Y45397D01*
X20129Y45397D01*
Y52075D01*
X20450D01*
Y53175D01*
X19350D01*
Y52075D01*
X19671D01*
Y45492D01*
X17922Y43743D01*
X17754Y43755D01*
X17724Y43799D01*
X17724Y43800D01*
Y43920D01*
X17823Y44069D01*
X17858Y44245D01*
X17823Y44420D01*
X17724Y44569D01*
X17792Y44704D01*
X17868Y44818D01*
X17903Y44994D01*
X17868Y45169D01*
X17768Y45318D01*
X17754Y45327D01*
X17734Y45477D01*
X17830Y45596D01*
X18073D01*
X18161Y45613D01*
X18235Y45663D01*
X18562Y45990D01*
X18612Y46064D01*
X18629Y46152D01*
Y52075D01*
X18950D01*
Y53175D01*
X17850D01*
Y52075D01*
X18171D01*
Y46247D01*
X17978Y46054D01*
X17788D01*
X17724Y46149D01*
X17576Y46249D01*
X17400Y46284D01*
X17254Y46255D01*
X17104Y46335D01*
Y47128D01*
X17112Y47139D01*
X17129Y47227D01*
X17129Y47227D01*
Y52075D01*
X17450D01*
Y53175D01*
X16350D01*
Y52075D01*
X16671D01*
Y47301D01*
X16663Y47290D01*
X16646Y47202D01*
Y45323D01*
X16663Y45235D01*
X16713Y45160D01*
X16956Y44917D01*
X17007Y44883D01*
X17020Y44818D01*
X17119Y44669D01*
Y44599D01*
X17075Y44569D01*
X17020Y44487D01*
X15943D01*
X15629Y44800D01*
Y52075D01*
X15950D01*
Y53175D01*
X14850D01*
Y52075D01*
X15171D01*
Y44705D01*
X15188Y44617D01*
X15238Y44542D01*
X15685Y44095D01*
X15760Y44045D01*
X15848Y44028D01*
X17003D01*
X17075Y43920D01*
X17076Y43920D01*
Y43799D01*
X16976Y43651D01*
X16941Y43475D01*
X16976Y43299D01*
X17062Y43171D01*
X17076Y43105D01*
Y43062D01*
X16988Y42931D01*
X11861D01*
X11861Y42931D01*
X11774Y42914D01*
X11699Y42864D01*
X11023Y42188D01*
X10973Y42113D01*
X10955Y42025D01*
Y41148D01*
X10860Y41085D01*
X10761Y40936D01*
X10726Y40761D01*
X10761Y40585D01*
X10860Y40436D01*
X11009Y40337D01*
X11185Y40302D01*
X11360Y40337D01*
X11509Y40436D01*
X11609Y40585D01*
X11644Y40761D01*
X11705Y40822D01*
X11730Y40817D01*
X11905Y40852D01*
X11938Y40874D01*
X11955Y40863D01*
X12042Y40846D01*
X24396D01*
X24484Y40863D01*
X24558Y40913D01*
X26062Y42417D01*
X26112Y42491D01*
X26129Y42579D01*
X26129Y42579D01*
Y52075D01*
X26450D01*
Y53175D01*
D02*
G37*
G36*
X27500Y41134D02*
X27324Y41099D01*
X27224Y41032D01*
X26743D01*
X26606Y41005D01*
X26490Y40927D01*
X24300Y38737D01*
X24253Y38746D01*
X24078Y38711D01*
X23929Y38612D01*
X23829Y38463D01*
X23794Y38287D01*
X23829Y38112D01*
X23929Y37963D01*
X24078Y37863D01*
X24253Y37828D01*
X24429Y37863D01*
X24578Y37963D01*
X24677Y38112D01*
X24678Y38115D01*
X24707Y38135D01*
X26891Y40318D01*
X27224D01*
X27324Y40251D01*
X27500Y40216D01*
X27676Y40251D01*
X27824Y40351D01*
X27924Y40499D01*
X27959Y40675D01*
X27924Y40851D01*
X27824Y40999D01*
X27676Y41099D01*
X27500Y41134D01*
D02*
G37*
G36*
X21012Y40469D02*
X20836Y40434D01*
X20687Y40334D01*
X20588Y40186D01*
X20553Y40010D01*
X20588Y39834D01*
X20687Y39686D01*
X20836Y39586D01*
X21012Y39551D01*
X21187Y39586D01*
X21336Y39686D01*
X21363Y39726D01*
X23276D01*
X23276Y39724D01*
X23376Y39576D01*
X23524Y39476D01*
X23700Y39441D01*
X23876Y39476D01*
X24024Y39576D01*
X24124Y39724D01*
X24159Y39900D01*
X24124Y40076D01*
X24024Y40224D01*
X23876Y40324D01*
X23700Y40359D01*
X23524Y40324D01*
X23376Y40224D01*
X23349Y40184D01*
X21436D01*
X21436Y40186D01*
X21336Y40334D01*
X21187Y40434D01*
X21012Y40469D01*
D02*
G37*
G36*
X8433Y11964D02*
Y11150D01*
X9246D01*
X9233Y11255D01*
X9134Y11492D01*
X8978Y11696D01*
X8774Y11852D01*
X8537Y11950D01*
X8433Y11964D01*
D02*
G37*
G36*
X30991Y11946D02*
X30887Y11932D01*
X30650Y11834D01*
X30446Y11678D01*
X30290Y11474D01*
X30191Y11237D01*
X30178Y11132D01*
X30991D01*
Y11946D01*
D02*
G37*
G36*
X9246Y10850D02*
X8433D01*
Y10037D01*
X8537Y10050D01*
X8774Y10149D01*
X8978Y10305D01*
X9134Y10508D01*
X9233Y10746D01*
X9246Y10850D01*
D02*
G37*
G36*
X30991Y10832D02*
X30178D01*
X30191Y10728D01*
X30290Y10491D01*
X30446Y10287D01*
X30650Y10131D01*
X30887Y10032D01*
X30991Y10019D01*
Y10832D01*
D02*
G37*
%LPD*%
G36*
X10366Y43475D02*
X10004D01*
X9504Y43975D01*
X10004Y44475D01*
X10366D01*
Y43475D01*
D02*
G37*
G36*
X9254Y43975D02*
X9754Y43475D01*
X8969D01*
Y44475D01*
X9754D01*
X9254Y43975D01*
D02*
G37*
G36*
X10366Y40375D02*
X10004D01*
X9504Y40875D01*
X10004Y41375D01*
X10366D01*
Y40375D01*
D02*
G37*
G36*
X9254Y40875D02*
X9754Y40375D01*
X8969D01*
Y41375D01*
X9754D01*
X9254Y40875D01*
D02*
G37*
G36*
X10366Y37175D02*
X10004D01*
X9504Y37675D01*
X10004Y38175D01*
X10366D01*
Y37175D01*
D02*
G37*
G36*
X9254Y37675D02*
X9754Y37175D01*
X8969D01*
Y38175D01*
X9754D01*
X9254Y37675D01*
D02*
G37*
D10*
X34399Y47175D02*
G03*
X32401Y47175I-999J-50D01*
G01*
Y52175D02*
G03*
X34399Y52175I999J50D01*
G01*
X5001D02*
G03*
X6999Y52175I999J50D01*
G01*
Y47175D02*
G03*
X5001Y47175I-999J-50D01*
G01*
X16825Y5176D02*
G03*
X16825Y7174I-50J999D01*
G01*
X21825D02*
G03*
X21825Y5176I50J-999D01*
G01*
D13*
X22900Y45088D02*
Y52625D01*
X22600Y44788D02*
X22900Y45088D01*
X22600Y44775D02*
Y44788D01*
X17118Y45080D02*
X17358D01*
X17444Y44994D01*
X16875Y45323D02*
X17118Y45080D01*
X15848Y44257D02*
X17387D01*
X17399Y44245D01*
X16875Y45323D02*
Y47202D01*
X23645Y39955D02*
X23700Y39900D01*
X21067Y39955D02*
X23645D01*
X21012Y40010D02*
X21067Y39955D01*
X22579Y41652D02*
X24300Y43373D01*
Y52525D01*
X24400Y52625D01*
X19549Y42124D02*
X21400Y43975D01*
Y52625D01*
X18073Y45825D02*
X18400Y46152D01*
Y52625D01*
X24396Y41075D02*
X25900Y42579D01*
X11842Y41276D02*
X12042Y41075D01*
X11730Y41276D02*
X11842D01*
X12042Y41075D02*
X24396D01*
X12398Y41652D02*
X22579D01*
X12344Y41706D02*
X12398Y41652D01*
X15321Y55475D02*
X16300D01*
X14750Y56046D02*
Y57650D01*
Y56046D02*
X15321Y55475D01*
X13757Y55432D02*
X14843D01*
X15400Y54125D02*
Y54875D01*
X14843Y55432D02*
X15400Y54875D01*
X16900Y54125D02*
Y54875D01*
X16300Y55475D02*
X16900Y54875D01*
X16250Y56025D02*
X16775Y55500D01*
X17775D01*
X19900Y54125D02*
Y54875D01*
X18300Y55475D02*
X19300D01*
X19900Y54875D01*
X19250Y56049D02*
X19832Y55467D01*
X20808D01*
X25900Y54125D02*
Y54875D01*
X24328Y55500D02*
X25275D01*
X25900Y54875D01*
X22784Y55491D02*
X23784D01*
X24390Y54135D02*
Y54885D01*
X23784Y55491D02*
X24390Y54885D01*
X21318Y55471D02*
X22304D01*
X22900Y54125D02*
Y54875D01*
X22304Y55471D02*
X22900Y54875D01*
X22255Y56020D02*
X22784Y55491D01*
X19250Y56049D02*
Y57650D01*
X17775Y55500D02*
X18350Y54925D01*
Y54175D02*
Y54925D01*
Y54175D02*
X18400Y54125D01*
X23765Y56063D02*
X24328Y55500D01*
X13250Y55939D02*
Y57650D01*
Y55939D02*
X13757Y55432D01*
X16250Y56025D02*
Y57650D01*
X17750Y56025D02*
Y57650D01*
Y56025D02*
X18300Y55475D01*
X22255Y56020D02*
Y57645D01*
X22250Y57650D02*
X22255Y57645D01*
X20789Y56000D02*
X21318Y55471D01*
X20789Y56000D02*
Y57611D01*
X20750Y57650D02*
X20789Y57611D01*
X20808Y55467D02*
X21400Y54875D01*
X23750Y57650D02*
X23765Y57635D01*
Y56063D02*
Y57635D01*
X10132Y43975D02*
X10171Y44014D01*
X10104Y43975D02*
X10132D01*
X10171Y44014D02*
X11502D01*
X11523Y44035D01*
X10104Y40875D02*
Y43975D01*
X15400Y54125D02*
X15400Y54125D01*
X17400Y43475D02*
X17978D01*
X12930Y42177D02*
X12983Y42124D01*
X19549D01*
X11861Y42702D02*
X17373D01*
X17400Y42675D01*
X17978Y43475D02*
X19900Y45397D01*
X11185Y42025D02*
X11861Y42702D01*
X21400Y54125D02*
Y54875D01*
X22900Y54125D02*
X22900Y54125D01*
X24390Y54135D02*
X24400Y54125D01*
X27985Y28751D02*
Y32090D01*
Y28751D02*
X28002Y28734D01*
X22649Y37426D02*
X27985Y32090D01*
X14720Y37426D02*
X22649D01*
X28654Y17021D02*
Y33729D01*
X14672Y38297D02*
X22747D01*
X27970Y33075D02*
X28000D01*
X22747Y38297D02*
X27970Y33075D01*
X10104Y37675D02*
Y40875D01*
X9400Y36075D02*
Y36197D01*
X9096Y36501D02*
X9400Y36197D01*
X9096Y36501D02*
Y37675D01*
X9300Y39275D02*
Y39397D01*
X9096Y39601D02*
X9300Y39397D01*
X9096Y39601D02*
Y40875D01*
X8355Y43975D02*
X9096D01*
X8267Y28796D02*
X8283Y28780D01*
X8267Y28796D02*
Y43887D01*
X8355Y43975D01*
X11185Y40761D02*
Y42025D01*
X15400Y44705D02*
X15848Y44257D01*
X15400Y44705D02*
Y52625D01*
X25900Y42579D02*
Y52625D01*
X29436Y33679D02*
X29558D01*
X29100Y33342D02*
X29436Y33679D01*
X29473Y18602D02*
X31141D01*
X29100Y18975D02*
Y33342D01*
Y18975D02*
X29473Y18602D01*
X16875Y47202D02*
X16900Y47227D01*
X28654Y17021D02*
X29613Y16062D01*
X28654Y33729D02*
X29200Y34275D01*
X29613Y16062D02*
X31141D01*
X30544Y34275D02*
X30547Y34278D01*
X29200Y34275D02*
X30544D01*
X17400Y45825D02*
X18073D01*
X19900Y45397D02*
Y52625D01*
X16900Y47227D02*
Y52625D01*
D15*
X9385Y64325D02*
G03*
X7000Y61940I0J-2385D01*
G01*
X32400Y61929D02*
G03*
X30004Y64325I-2396J0D01*
G01*
X0Y0D02*
X40000D01*
X0D02*
Y71975D01*
X40000Y71950D02*
X40000Y0D01*
X0Y71975D02*
X40000D01*
X5001Y5176D02*
X16825D01*
X5001D02*
Y47175D01*
X21825Y5176D02*
X34399D01*
Y47175D01*
X5001Y52175D02*
Y66175D01*
X34399D01*
Y52175D02*
Y66175D01*
X7000Y7175D02*
X29850D01*
X7000D02*
Y61940D01*
X29850Y7175D02*
X32400Y9725D01*
X9400Y64325D02*
X30004D01*
X32400Y9725D02*
Y61925D01*
D17*
X21400Y54125D02*
D03*
Y52625D02*
D03*
X16900Y54125D02*
D03*
Y52625D02*
D03*
X19900D02*
D03*
Y54125D02*
D03*
X22900Y52625D02*
D03*
Y54125D02*
D03*
X24400Y52625D02*
D03*
Y54125D02*
D03*
X25900Y52625D02*
D03*
X15400D02*
D03*
X18400D02*
D03*
Y54125D02*
D03*
X25900D02*
D03*
X15400D02*
D03*
D21*
X25250Y57650D02*
D03*
X26750D02*
D03*
X23750D02*
D03*
X22250D02*
D03*
X20750D02*
D03*
X19250D02*
D03*
X17750D02*
D03*
X16250D02*
D03*
X14750D02*
D03*
X13250D02*
D03*
D23*
X28700Y61450D02*
D03*
X11300D02*
D03*
D36*
X24253Y38287D02*
X24307D01*
X24407Y38387D01*
X24455D01*
X26743Y40675D01*
X27500D01*
X27100Y50575D02*
X27104Y50571D01*
X13717Y14692D02*
Y39636D01*
X12600Y13575D02*
X13717Y14692D01*
X27100Y50575D02*
Y55089D01*
X26537Y55652D02*
X27100Y55089D01*
X25823Y55652D02*
X26537D01*
X25400Y56075D02*
Y57500D01*
Y56075D02*
X25823Y55652D01*
X25250Y57650D02*
X25400Y57500D01*
X25250Y57650D02*
Y59741D01*
X24916Y60075D02*
X25250Y59741D01*
X14800Y60075D02*
X24916D01*
D37*
X8283Y13540D02*
D03*
Y11000D02*
D03*
X31141Y10982D02*
D03*
Y18602D02*
D03*
Y16062D02*
D03*
Y26222D02*
D03*
X8283Y16080D02*
D03*
Y23700D02*
D03*
Y18620D02*
D03*
Y21160D02*
D03*
Y26240D02*
D03*
X31141Y23682D02*
D03*
Y21142D02*
D03*
Y13522D02*
D03*
D38*
X2500Y2500D02*
D03*
X37500Y62000D02*
D03*
Y2500D02*
D03*
X2500Y69500D02*
D03*
D39*
X8283Y28780D02*
D03*
X31141Y28762D02*
D03*
D40*
X17399Y44245D02*
D03*
X17444Y44994D02*
D03*
X21012Y40010D02*
D03*
X23700Y39900D02*
D03*
X12600Y13575D02*
D03*
X24253Y38287D02*
D03*
X27500Y40675D02*
D03*
X27104Y50571D02*
D03*
X13717Y39636D02*
D03*
X14800Y60075D02*
D03*
X9159Y7795D02*
D03*
X10159Y9795D02*
D03*
Y17795D02*
D03*
X9159Y19795D02*
D03*
X10159Y21795D02*
D03*
Y25795D02*
D03*
Y29795D02*
D03*
X9159Y31795D02*
D03*
X10159Y33795D02*
D03*
X9159Y47795D02*
D03*
X10159Y49795D02*
D03*
X9159Y51795D02*
D03*
X10159Y53795D02*
D03*
X9159Y55795D02*
D03*
X10159Y57795D02*
D03*
X9159Y59795D02*
D03*
X10159Y61795D02*
D03*
X11159Y7795D02*
D03*
X12159Y9795D02*
D03*
X11159Y11795D02*
D03*
Y15795D02*
D03*
X12159Y17795D02*
D03*
X11159Y19795D02*
D03*
X12159Y21795D02*
D03*
X11159Y23795D02*
D03*
X12159Y25795D02*
D03*
X11159Y27795D02*
D03*
X12159Y29795D02*
D03*
X11159Y31795D02*
D03*
X12159Y33795D02*
D03*
Y37795D02*
D03*
X11159Y47795D02*
D03*
X12159Y49795D02*
D03*
X11159Y51795D02*
D03*
X12159Y53795D02*
D03*
X11159Y55795D02*
D03*
X12159Y57795D02*
D03*
X11159Y59795D02*
D03*
X13159Y7795D02*
D03*
X14159Y9795D02*
D03*
X13159Y11795D02*
D03*
X14159Y13795D02*
D03*
X13159Y47795D02*
D03*
Y51795D02*
D03*
Y59795D02*
D03*
X14159Y61795D02*
D03*
X15159Y7795D02*
D03*
X16159Y9795D02*
D03*
X15159Y11795D02*
D03*
X16159Y13795D02*
D03*
X15159Y15795D02*
D03*
X16159Y17795D02*
D03*
X15159Y19795D02*
D03*
X16159Y21795D02*
D03*
X15159Y23795D02*
D03*
X16159Y25795D02*
D03*
X15159Y27795D02*
D03*
X16159Y29795D02*
D03*
X15159Y31795D02*
D03*
Y39795D02*
D03*
X16159Y61795D02*
D03*
X18159Y9795D02*
D03*
X17159Y11795D02*
D03*
X18159Y13795D02*
D03*
X17159Y15795D02*
D03*
X18159Y17795D02*
D03*
X17159Y19795D02*
D03*
X18159Y21795D02*
D03*
X17159Y23795D02*
D03*
X18159Y25795D02*
D03*
X17159Y27795D02*
D03*
X18159Y29795D02*
D03*
X17159Y31795D02*
D03*
X18159Y33795D02*
D03*
X17159Y35795D02*
D03*
Y39795D02*
D03*
X18159Y61795D02*
D03*
X20159Y9795D02*
D03*
X19159Y11795D02*
D03*
X20159Y13795D02*
D03*
X19159Y15795D02*
D03*
X20159Y17795D02*
D03*
X19159Y19795D02*
D03*
X20159Y21795D02*
D03*
X19159Y23795D02*
D03*
X20159Y25795D02*
D03*
X19159Y27795D02*
D03*
X20159Y29795D02*
D03*
Y33795D02*
D03*
X19159Y35795D02*
D03*
Y39795D02*
D03*
X20159Y61795D02*
D03*
X22159Y9795D02*
D03*
X21159Y11795D02*
D03*
X22159Y13795D02*
D03*
X21159Y15795D02*
D03*
X22159Y17795D02*
D03*
X21159Y19795D02*
D03*
X22159Y21795D02*
D03*
X21159Y23795D02*
D03*
X22159Y25795D02*
D03*
X21159Y27795D02*
D03*
X22159Y29795D02*
D03*
Y45795D02*
D03*
Y61795D02*
D03*
X23159Y7795D02*
D03*
X24159Y9795D02*
D03*
X23159Y11795D02*
D03*
X24159Y13795D02*
D03*
X23159Y15795D02*
D03*
X24159Y17795D02*
D03*
X23159Y19795D02*
D03*
X24159Y21795D02*
D03*
X23159Y23795D02*
D03*
X24159Y25795D02*
D03*
X23159Y27795D02*
D03*
X24159Y29795D02*
D03*
X23159Y35795D02*
D03*
Y43795D02*
D03*
X24159Y61795D02*
D03*
X25159Y7795D02*
D03*
X26159Y9795D02*
D03*
X25159Y11795D02*
D03*
X26159Y13795D02*
D03*
X25159Y15795D02*
D03*
X26159Y17795D02*
D03*
X25159Y19795D02*
D03*
X26159Y21795D02*
D03*
X25159Y23795D02*
D03*
X26159Y25795D02*
D03*
X25159Y27795D02*
D03*
Y43795D02*
D03*
X26159Y61795D02*
D03*
X27159Y7795D02*
D03*
X28159Y9795D02*
D03*
X27159Y11795D02*
D03*
X28159Y13795D02*
D03*
X27159Y15795D02*
D03*
Y19795D02*
D03*
Y23795D02*
D03*
Y27795D02*
D03*
X28159Y41795D02*
D03*
X27159Y43795D02*
D03*
Y47795D02*
D03*
X28159Y49795D02*
D03*
Y53795D02*
D03*
Y57795D02*
D03*
X27159Y59795D02*
D03*
X29159Y7795D02*
D03*
X30159Y9795D02*
D03*
X29159Y11795D02*
D03*
Y39795D02*
D03*
Y43795D02*
D03*
X30159Y45795D02*
D03*
X29159Y47795D02*
D03*
X30159Y49795D02*
D03*
X29159Y51795D02*
D03*
X30159Y53795D02*
D03*
X29159Y55795D02*
D03*
X30159Y57795D02*
D03*
X29159Y59795D02*
D03*
X30159Y61795D02*
D03*
X19104Y45876D02*
D03*
X20053Y43960D02*
D03*
X23618Y46120D02*
D03*
X17579Y48990D02*
D03*
X14120Y49795D02*
D03*
X16140Y50324D02*
D03*
X12344Y41706D02*
D03*
X17400Y43475D02*
D03*
Y42675D02*
D03*
X28002Y28734D02*
D03*
X28000Y33075D02*
D03*
X14672Y38297D02*
D03*
X14720Y37426D02*
D03*
X9400Y36075D02*
D03*
X9300Y39275D02*
D03*
X11730Y41276D02*
D03*
X11185Y40761D02*
D03*
X12930Y42177D02*
D03*
X22600Y44775D02*
D03*
X29558Y33679D02*
D03*
X30547Y34278D02*
D03*
X11523Y44035D02*
D03*
X17400Y45825D02*
D03*
D41*
X10104Y43975D02*
D03*
Y37675D02*
D03*
Y40875D02*
D03*
X9096Y37675D02*
D03*
Y43975D02*
D03*
Y40875D02*
D03*
M02*
