G04*
G04 #@! TF.GenerationSoftware,Altium Limited,Altium Designer,26.6.0 (10)*
G04*
G04 Layer_Color=16711935*
G04 Board_Origin=11311025|13478347*
%FSLAX43Y43*%
%MOMM*%
G71*
G04*
G04 #@! TF.SameCoordinates,DD9B497A-F5E9-495D-854C-5C37AF66DC5B*
G04*
G04*
G04 #@! TF.FilePolarity,Negative*
G04*
G01*
G75*
%ADD10C,0.250*%
%ADD15C,0.254*%
%ADD21R,0.700X2.900*%
%ADD23R,1.100X1.900*%
%ADD26R,1.000X1.000*%
%ADD30C,1.750*%
%ADD31C,0.200*%
%ADD32C,1.700*%
%ADD33R,1.750X1.750*%
%ADD34C,0.800*%
%ADD42C,0.256*%
G36*
X10366Y38225D02*
X8969D01*
Y37125D01*
X10366D01*
Y38225D01*
D02*
G37*
G36*
Y41425D02*
X8969D01*
Y40325D01*
X10366D01*
Y41425D01*
D02*
G37*
G36*
Y44525D02*
X8969D01*
Y43425D01*
X10366D01*
Y44525D01*
D02*
G37*
D10*
X34399Y47175D02*
G03*
X32401Y47175I-999J-50D01*
G01*
Y52175D02*
G03*
X34399Y52175I999J50D01*
G01*
X5001D02*
G03*
X6999Y52175I999J50D01*
G01*
Y47175D02*
G03*
X5001Y47175I-999J-50D01*
G01*
X16825Y5176D02*
G03*
X16825Y7174I-50J999D01*
G01*
X21825D02*
G03*
X21825Y5176I50J-999D01*
G01*
D15*
X9385Y64325D02*
G03*
X7000Y61940I0J-2385D01*
G01*
X32400Y61929D02*
G03*
X30004Y64325I-2396J0D01*
G01*
X0Y0D02*
X40000D01*
X0D02*
Y71975D01*
X40000Y71950D02*
X40000Y0D01*
X0Y71975D02*
X40000D01*
X5001Y5176D02*
X16825D01*
X5001D02*
Y47175D01*
X21825Y5176D02*
X34399D01*
Y47175D01*
X5001Y52175D02*
Y66175D01*
X34399D01*
Y52175D02*
Y66175D01*
X7000Y7175D02*
X29850D01*
X7000D02*
Y61940D01*
X29850Y7175D02*
X32400Y9725D01*
X9400Y64325D02*
X30004D01*
X32400Y9725D02*
Y61925D01*
D21*
X25250Y57650D02*
D03*
X26750D02*
D03*
X23750D02*
D03*
X22250D02*
D03*
X20750D02*
D03*
X19250D02*
D03*
X17750D02*
D03*
X16250D02*
D03*
X14750D02*
D03*
X13250D02*
D03*
D23*
X28700Y61450D02*
D03*
X11300D02*
D03*
D26*
X21400Y54125D02*
D03*
Y52625D02*
D03*
X16900Y54125D02*
D03*
Y52625D02*
D03*
X19900D02*
D03*
Y54125D02*
D03*
X22900Y52625D02*
D03*
Y54125D02*
D03*
X24400Y52625D02*
D03*
Y54125D02*
D03*
X25900Y52625D02*
D03*
X15400D02*
D03*
X18400D02*
D03*
Y54125D02*
D03*
X25900D02*
D03*
X15400D02*
D03*
D30*
X8283Y13540D02*
D03*
Y11000D02*
D03*
X31141Y10982D02*
D03*
Y18602D02*
D03*
Y16062D02*
D03*
Y26222D02*
D03*
X8283Y16080D02*
D03*
Y23700D02*
D03*
Y18620D02*
D03*
Y21160D02*
D03*
Y26240D02*
D03*
X31141Y23682D02*
D03*
Y21142D02*
D03*
Y13522D02*
D03*
D31*
X32400Y50175D02*
D03*
Y51175D02*
D03*
Y52175D02*
D03*
Y48175D02*
D03*
Y49175D02*
D03*
Y47175D02*
D03*
X7000Y49175D02*
D03*
Y48175D02*
D03*
Y47175D02*
D03*
Y51175D02*
D03*
Y50175D02*
D03*
Y52175D02*
D03*
X19825Y7175D02*
D03*
X20825D02*
D03*
X21825D02*
D03*
X17825D02*
D03*
X18825D02*
D03*
X16825D02*
D03*
D32*
X2500Y2500D02*
D03*
X37500Y62000D02*
D03*
Y2500D02*
D03*
X2500Y69500D02*
D03*
D33*
X8283Y28780D02*
D03*
X31141Y28762D02*
D03*
D34*
X21012Y40010D02*
D03*
X23700Y39900D02*
D03*
D42*
X10104Y43975D02*
D03*
Y37675D02*
D03*
Y40875D02*
D03*
X9096Y37675D02*
D03*
Y43975D02*
D03*
Y40875D02*
D03*
M02*
