M48
;Layer_Color=9474304
;FILE_FORMAT=4:3
METRIC,LZ
;TYPE=PLATED
T01F00S00C0.300
T02F00S00C1.000
%
T01
X0011159Y0007795
X0013159
X0015159
X0014159Y0009795
X0012159
X0011159Y0011795
X0013159
X0015159
X0017159
X0019159
X0021159
X0023159
X0025159
X0027159
X0029159
X0028159Y0009795
X0026159
X0024159
X0022159
X0020159
X0018159
X0016159
Y0013795
X0014159
X00126Y0013575
X0011159Y0015795
X0012159Y0017795
X0011159Y0019795
X0012159Y0021795
X0011159Y0023795
X0012159Y0025795
X0011159Y0027795
X0012159Y0029795
X0011159Y0031795
X0012159Y0033795
Y0037795
X001472Y0037426
X0014672Y0038297
X0015159Y0039795
X0013717Y0039636
X001293Y0042177
X0012344Y0041706
X001173Y0041276
X0011185Y0040761
X0011523Y0044035
X0017399Y0044245
X00174Y0043475
Y0042675
X0017444Y0044994
X0020053Y004396
X0023159Y0043795
X00226Y0044775
X0025159Y0043795
X0027159
X0029159
X0028159Y0041795
X00275Y0040675
X0029159Y0039795
X00237Y00399
X0024253Y0038287
X0023159Y0035795
X0019159
X0017159
X0018159Y0033795
X0020159
Y0029795
X0018159
X0016159
X0015159Y0027795
X0017159
X0019159
X0021159
X0023159
X0025159
X0027159
X0028002Y0028734
X0028Y0033075
X0029558Y0033679
X0030547Y0034278
X0024159Y0029795
X0022159
Y0025795
X0020159
X0018159
X0016159
X0015159Y0023795
X0017159
X0019159
X0021159
X0023159
X0025159
X0027159
X0026159Y0021795
X0024159
X0022159
X0020159
X0018159
X0016159
X0015159Y0019795
X0017159
X0019159
X0021159
X0023159
X0025159
X0027159
X0026159Y0017795
X0024159
X0022159
X0020159
X0018159
X0016159
X0015159Y0015795
X0017159
X0019159
X0021159
X0023159
X0025159
X0027159
X0026159Y0013795
X0024159
X0022159
X0020159
X0018159
X0028159
X0030159Y0009795
X0029159Y0007795
X0027159
X0025159
X0023159
X0024159Y0025795
X0026159
X0017159Y0031795
X0015159
X0017159Y0039795
X0019159
X0021012Y004001
X00093Y0039275
X00094Y0036075
X0010159Y0033795
X0009159Y0031795
X0010159Y0029795
Y0025795
Y0021795
X0009159Y0019795
X0010159Y0017795
Y0009795
X0009159Y0007795
Y0047795
X0010159Y0049795
X0009159Y0051795
X0010159Y0053795
X0009159Y0055795
X0010159Y0057795
X0009159Y0059795
X0010159Y0061795
X0011159Y0059795
X0013159
X00148Y0060075
X0014159Y0061795
X0016159
X0018159
X0020159
X0022159
X0024159
X0026159
X0027159Y0059795
X0029159
X0028159Y0057795
X0030159
X0029159Y0055795
X0028159Y0053795
X0030159
X0029159Y0051795
X0028159Y0049795
X0027104Y0050571
X0027159Y0047795
X0029159
X0030159Y0045795
Y0049795
X0023618Y004612
X0022159Y0045795
X0019104Y0045876
X00174Y0045825
X0017579Y004899
X001614Y0050324
X001412Y0049795
X0012159
X0011159Y0047795
X0013159
Y0051795
X0011159
X0012159Y0053795
X0011159Y0055795
X0012159Y0057795
X0030159Y0061795
T02
X0031141Y0010982
Y0013522
Y0016062
Y0018602
Y0021142
Y0023682
Y0026222
Y0028762
X0008283Y002878
Y002624
Y00237
Y002116
Y001862
Y001608
Y001354
Y0011
M30
